<?xml version="1.0" encoding="UTF-8" standalone="no"?>
<svg
   name="pixel-svg-outer"
   width="256"
   height="256"
   viewBox="0 0 256 256"
   version="1.1"
   id="svg57"
   xmlns="http://www.w3.org/2000/svg"
   xmlns:svg="http://www.w3.org/2000/svg">
  <defs
     id="defs61">
    <clipPath
       id="clip0">
      <rect
         x="550"
         y="509"
         width="184"
         height="182"
         id="rect114" />
    </clipPath>
  </defs>
  <g
     transform="matrix(1.3437304,0,0,1.3437304,-1071.262,-680.76009)"
     id="g18090">
    <rect
       x="804"
       y="587.5"
       width="155.5"
       height="64.5"
       fill="#234f77"
       id="rect18046" />
    <path
       d="M 959.5,587.5 981,566 v 64.5 L 959.5,652 Z"
       fill="#1c4060"
       fill-rule="evenodd"
       id="path18048" />
    <path
       d="M 804,587.5 825.5,566 H 981 l -21.5,21.5 z"
       fill="#4e7292"
       fill-rule="evenodd"
       id="path18050" />
    <path
       d="M 804,587.5 825.5,566 H 981 v 64.5 L 959.5,652 H 804 Z m 0,0 H 959.5 L 981,566 m -21.5,21.5 V 652"
       stroke="#b4c7e7"
       stroke-width="2"
       stroke-miterlimit="8"
       fill="none"
       fill-rule="evenodd"
       id="path18052" />
    <path
       d="m 834,559.125 c 0,1.174 6.94,2.125 15.5,2.125 8.56,0 15.5,-0.951 15.5,-2.125 v 12.75 c 0,1.174 -6.94,2.125 -15.5,2.125 -8.56,0 -15.5,-0.951 -15.5,-2.125 z"
       fill="#234f77"
       fill-rule="evenodd"
       id="path18054" />
    <path
       d="m 834,559.125 c 0,-1.174 6.94,-2.125 15.5,-2.125 8.56,0 15.5,0.951 15.5,2.125 0,1.174 -6.94,2.125 -15.5,2.125 -8.56,0 -15.5,-0.951 -15.5,-2.125 z"
       fill="#7b95ad"
       fill-rule="evenodd"
       id="path18056" />
    <path
       d="m 865,559.125 c 0,1.174 -6.94,2.125 -15.5,2.125 -8.56,0 -15.5,-0.951 -15.5,-2.125 0,-1.174 6.94,-2.125 15.5,-2.125 8.56,0 15.5,0.951 15.5,2.125 v 12.75 c 0,1.174 -6.94,2.125 -15.5,2.125 -8.56,0 -15.5,-0.951 -15.5,-2.125 v -12.75"
       stroke="#b4c7e7"
       stroke-width="2"
       stroke-miterlimit="8"
       fill="none"
       fill-rule="evenodd"
       id="path18058" />
    <path
       d="m 884,559.125 c 0,1.174 7.163,2.125 16,2.125 8.837,0 16,-0.951 16,-2.125 v 12.75 c 0,1.174 -7.163,2.125 -16,2.125 -8.837,0 -16,-0.951 -16,-2.125 z"
       fill="#234f77"
       fill-rule="evenodd"
       id="path18060" />
    <path
       d="m 884,559.125 c 0,-1.174 7.163,-2.125 16,-2.125 8.837,0 16,0.951 16,2.125 0,1.174 -7.163,2.125 -16,2.125 -8.837,0 -16,-0.951 -16,-2.125 z"
       fill="#7b95ad"
       fill-rule="evenodd"
       id="path18062" />
    <path
       d="m 916,559.125 c 0,1.174 -7.163,2.125 -16,2.125 -8.837,0 -16,-0.951 -16,-2.125 0,-1.174 7.163,-2.125 16,-2.125 8.837,0 16,0.951 16,2.125 v 12.75 c 0,1.174 -7.163,2.125 -16,2.125 -8.837,0 -16,-0.951 -16,-2.125 v -12.75"
       stroke="#b4c7e7"
       stroke-width="2"
       stroke-miterlimit="8"
       fill="none"
       fill-rule="evenodd"
       id="path18064" />
    <path
       d="m 935,559.125 c 0,1.174 6.94,2.125 15.5,2.125 8.56,0 15.5,-0.951 15.5,-2.125 v 12.75 c 0,1.174 -6.94,2.125 -15.5,2.125 -8.56,0 -15.5,-0.951 -15.5,-2.125 z"
       fill="#234f77"
       fill-rule="evenodd"
       id="path18066" />
    <path
       d="m 935,559.125 c 0,-1.174 6.94,-2.125 15.5,-2.125 8.56,0 15.5,0.951 15.5,2.125 0,1.174 -6.94,2.125 -15.5,2.125 -8.56,0 -15.5,-0.951 -15.5,-2.125 z"
       fill="#7b95ad"
       fill-rule="evenodd"
       id="path18068" />
    <path
       d="m 966,559.125 c 0,1.174 -6.94,2.125 -15.5,2.125 -8.56,0 -15.5,-0.951 -15.5,-2.125 0,-1.174 6.94,-2.125 15.5,-2.125 8.56,0 15.5,0.951 15.5,2.125 v 12.75 c 0,1.174 -6.94,2.125 -15.5,2.125 -8.56,0 -15.5,-0.951 -15.5,-2.125 v -12.75"
       stroke="#b4c7e7"
       stroke-width="2"
       stroke-miterlimit="8"
       fill="none"
       fill-rule="evenodd"
       id="path18070" />
    <path
       d="m 818,568.125 c 0,1.174 7.163,2.125 16,2.125 8.837,0 16,-0.951 16,-2.125 v 12.75 c 0,1.174 -7.163,2.125 -16,2.125 -8.837,0 -16,-0.951 -16,-2.125 z"
       fill="#234f77"
       fill-rule="evenodd"
       id="path18072" />
    <path
       d="m 818,568.125 c 0,-1.174 7.163,-2.125 16,-2.125 8.837,0 16,0.951 16,2.125 0,1.174 -7.163,2.125 -16,2.125 -8.837,0 -16,-0.951 -16,-2.125 z"
       fill="#7b95ad"
       fill-rule="evenodd"
       id="path18074" />
    <path
       d="m 850,568.125 c 0,1.174 -7.163,2.125 -16,2.125 -8.837,0 -16,-0.951 -16,-2.125 0,-1.174 7.163,-2.125 16,-2.125 8.837,0 16,0.951 16,2.125 v 12.75 c 0,1.174 -7.163,2.125 -16,2.125 -8.837,0 -16,-0.951 -16,-2.125 v -12.75"
       stroke="#b4c7e7"
       stroke-width="2"
       stroke-miterlimit="8"
       fill="none"
       fill-rule="evenodd"
       id="path18076" />
    <path
       d="m 869,568.125 c 0,1.174 6.94,2.125 15.5,2.125 8.56,0 15.5,-0.951 15.5,-2.125 v 12.75 c 0,1.174 -6.94,2.125 -15.5,2.125 -8.56,0 -15.5,-0.951 -15.5,-2.125 z"
       fill="#234f77"
       fill-rule="evenodd"
       id="path18078" />
    <path
       d="m 869,568.125 c 0,-1.174 6.94,-2.125 15.5,-2.125 8.56,0 15.5,0.951 15.5,2.125 0,1.174 -6.94,2.125 -15.5,2.125 -8.56,0 -15.5,-0.951 -15.5,-2.125 z"
       fill="#7b95ad"
       fill-rule="evenodd"
       id="path18080" />
    <path
       d="m 900,568.125 c 0,1.174 -6.94,2.125 -15.5,2.125 -8.56,0 -15.5,-0.951 -15.5,-2.125 0,-1.174 6.94,-2.125 15.5,-2.125 8.56,0 15.5,0.951 15.5,2.125 v 12.75 c 0,1.174 -6.94,2.125 -15.5,2.125 -8.56,0 -15.5,-0.951 -15.5,-2.125 v -12.75"
       stroke="#b4c7e7"
       stroke-width="2"
       stroke-miterlimit="8"
       fill="none"
       fill-rule="evenodd"
       id="path18082" />
    <path
       d="m 919,568.125 c 0,1.174 7.163,2.125 16,2.125 8.837,0 16,-0.951 16,-2.125 v 12.75 c 0,1.174 -7.163,2.125 -16,2.125 -8.837,0 -16,-0.951 -16,-2.125 z"
       fill="#234f77"
       fill-rule="evenodd"
       id="path18084" />
    <path
       d="m 919,568.125 c 0,-1.174 7.163,-2.125 16,-2.125 8.837,0 16,0.951 16,2.125 0,1.174 -7.163,2.125 -16,2.125 -8.837,0 -16,-0.951 -16,-2.125 z"
       fill="#7b95ad"
       fill-rule="evenodd"
       id="path18086" />
    <path
       d="m 951,568.125 c 0,1.174 -7.163,2.125 -16,2.125 -8.837,0 -16,-0.951 -16,-2.125 0,-1.174 7.163,-2.125 16,-2.125 8.837,0 16,0.951 16,2.125 v 12.75 c 0,1.174 -7.163,2.125 -16,2.125 -8.837,0 -16,-0.951 -16,-2.125 v -12.75"
       stroke="#b4c7e7"
       stroke-width="2"
       stroke-miterlimit="8"
       fill="none"
       fill-rule="evenodd"
       id="path18088" />
  </g>
</svg>
