<?xml version="1.0" encoding="UTF-8" standalone="no"?>
<svg
   name="pixel-svg-outer"
   width="256"
   height="256"
   viewBox="0 0 256 256"
   version="1.1"
   id="svg57"
   xmlns="http://www.w3.org/2000/svg"
   xmlns:svg="http://www.w3.org/2000/svg">
  <defs
     id="defs61">
    <clipPath
       id="clip0">
      <rect
         x="550"
         y="509"
         width="184"
         height="182"
         id="rect114" />
    </clipPath>
  </defs>
  <g
     transform="matrix(-1.3137335,0,0,1.3137335,1641.0193,-668.43132)"
     id="g366">
    <path
       d="m 1178,665.5 c 0,-14.636 11.86,-26.5 26.5,-26.5 14.64,0 26.5,11.864 26.5,26.5 0,14.636 -11.86,26.5 -26.5,26.5 -14.64,0 -26.5,-11.864 -26.5,-26.5 z"
       stroke="#2f5597"
       stroke-width="16"
       stroke-miterlimit="8"
       fill="none"
       fill-rule="evenodd"
       id="path354" />
    <path
       d="m 1178,546.5 c 0,-14.636 11.86,-26.5 26.5,-26.5 14.64,0 26.5,11.864 26.5,26.5 0,14.636 -11.86,26.5 -26.5,26.5 -14.64,0 -26.5,-11.864 -26.5,-26.5 z"
       stroke="#2f5597"
       stroke-width="16"
       stroke-miterlimit="8"
       fill="none"
       fill-rule="evenodd"
       id="path356" />
    <path
       d="m 1072,546.5 c 0,-14.636 11.86,-26.5 26.5,-26.5 14.64,0 26.5,11.864 26.5,26.5 0,14.636 -11.86,26.5 -26.5,26.5 -14.64,0 -26.5,-11.864 -26.5,-26.5 z"
       stroke="#2f5597"
       stroke-width="16"
       stroke-miterlimit="8"
       fill="none"
       fill-rule="evenodd"
       id="path358" />
    <rect
       x="1196.5"
       y="573.5"
       width="18"
       height="66"
       stroke="#2f5597"
       stroke-width="1.33333"
       stroke-miterlimit="8"
       fill="#2f5597"
       id="rect360" />
    <path
       d="m 1136.25,614.483 c -23.46,0.636 -43.04,-16.302 -43.73,-37.832 -0.08,-2.296 0.07,-4.594 0.44,-6.867 l 18.19,2.474 c -2.09,11.262 6.89,21.843 20.06,23.633 1.47,0.201 2.96,0.284 4.45,0.249 z"
       stroke="#2f5597"
       stroke-width="1.33333"
       stroke-miterlimit="8"
       fill="#2f5597"
       fill-rule="evenodd"
       id="path362" />
    <rect
       x="1128.5"
       y="595.5"
       width="67"
       height="19"
       stroke="#2f5597"
       stroke-width="1.33333"
       stroke-miterlimit="8"
       fill="#2f5597"
       id="rect364" />
  </g>
</svg>
