<?xml version="1.0" encoding="UTF-8" standalone="no"?>
<svg
   name="pixel-svg-outer"
   width="256"
   height="256"
   viewBox="0 0 256 256"
   version="1.1"
   id="svg57"
   xmlns="http://www.w3.org/2000/svg"
   xmlns:svg="http://www.w3.org/2000/svg">
  <defs
     id="defs61">
    <clipPath
       id="clip0">
      <rect
         x="550"
         y="509"
         width="184"
         height="182"
         id="rect114" />
    </clipPath>
  </defs>
  <g
     transform="matrix(1.2765657,0,0,1.2765657,-24.036029,-19.641191)"
     id="g25548">
    <path
       d="M 32,64.5006 C 32,50.417 43.417,39 57.5005,39 H 181.499 C 195.583,39 207,50.417 207,64.5006 V 166.499 C 207,180.583 195.583,192 181.499,192 H 57.5005 C 43.417,192 32,180.583 32,166.499 Z"
       stroke="#2584ff"
       stroke-width="8"
       stroke-miterlimit="8"
       fill="#bdd7ee"
       fill-rule="evenodd"
       id="path25522" />
    <path
       d="m 87.5001,74.0001 c 0,-5.2467 4.2533,-9.5 9.5,-9.5 H 176 c 5.247,0 9.5,4.2533 9.5,9.5 v 0 c 0,5.2467 -4.253,9.5001 -9.5,9.5001 l -78.9999,-1e-4 c -5.2467,0 -9.5,-4.2534 -9.5,-9.5001 z"
       stroke="#2584ff"
       stroke-width="1.33333"
       stroke-miterlimit="8"
       fill="#2584ff"
       fill-rule="evenodd"
       id="path25524" />
    <path
       d="m 87.5001,114 c 0,-5.247 4.2533,-9.5 9.5,-9.5 H 176 c 5.247,0 9.5,4.253 9.5,9.5 v 0 c 0,5.247 -4.253,9.5 -9.5,9.5 H 97.0001 c -5.2467,0 -9.5,-4.253 -9.5,-9.5 z"
       stroke="#2584ff"
       stroke-width="1.33333"
       stroke-miterlimit="8"
       fill="#2584ff"
       fill-rule="evenodd"
       id="path25526" />
    <path
       d="m 87.5001,154 c 0,-5.247 4.2533,-9.5 9.5,-9.5 H 176 c 5.247,0 9.5,4.253 9.5,9.5 v 0 c 0,5.247 -4.253,9.5 -9.5,9.5 H 97.0001 c -5.2467,0 -9.5,-4.253 -9.5,-9.5 z"
       stroke="#2584ff"
       stroke-width="1.33333"
       stroke-miterlimit="8"
       fill="#2584ff"
       fill-rule="evenodd"
       id="path25528" />
    <path
       d="M 47,73 C 47,63.0589 54.835,55 64.5,55 74.165,55 82,63.0589 82,73 82,82.9411 74.165,91 64.5,91 54.835,91 47,82.9411 47,73 Z"
       fill="#2584ff"
       fill-rule="evenodd"
       id="path25530" />
    <path
       d="m 52.8672,77.6765 c -1.4633,-1.4633 -1.4633,-3.8358 0,-5.2991 v 0 c 1.4633,-1.4632 3.8358,-1.4632 5.2991,0 l 7.0618,7.0619 c 1.4633,1.4633 1.4633,3.8358 0,5.2991 v -1e-4 c -1.4633,1.4633 -3.8357,1.4633 -5.299,0 z"
       fill="#ffffff"
       fill-rule="evenodd"
       id="path25532" />
    <path
       d="m 69.5247,63.4497 c 1.0346,-1.7922 3.3263,-2.4062 5.1184,-1.3715 v 0 c 1.7922,1.0347 2.4062,3.3263 1.3715,5.1185 l -9.7839,16.9462 c -1.0347,1.7921 -3.3263,2.4061 -5.1184,1.3714 v 0 C 59.3201,84.4796 58.7061,82.188 59.7408,80.3959 Z"
       fill="#ffffff"
       fill-rule="evenodd"
       id="path25534" />
    <path
       d="m 47,114 c 0,-9.941 7.835,-18 17.5,-18 9.665,0 17.5,8.059 17.5,18 0,9.941 -7.835,18 -17.5,18 C 54.835,132 47,123.941 47,114 Z"
       fill="#2584ff"
       fill-rule="evenodd"
       id="path25536" />
    <path
       d="m 52.8672,119.089 c -1.4633,-1.463 -1.4633,-3.836 0,-5.299 v 0 c 1.4633,-1.463 3.8358,-1.463 5.2991,0 l 7.0618,7.062 c 1.4633,1.463 1.4633,3.836 0,5.299 v 0 c -1.4633,1.463 -3.8357,1.463 -5.299,0 z"
       fill="#ffffff"
       fill-rule="evenodd"
       id="path25538" />
    <path
       d="m 69.5247,104.862 c 1.0346,-1.792 3.3263,-2.406 5.1184,-1.371 v 0 c 1.7922,1.034 2.4062,3.326 1.3715,5.118 l -9.7839,16.946 c -1.0347,1.793 -3.3263,2.407 -5.1184,1.372 v 0 c -1.7922,-1.035 -2.4062,-3.326 -1.3715,-5.119 z"
       fill="#ffffff"
       fill-rule="evenodd"
       id="path25540" />
    <path
       d="m 47,155 c 0,-9.941 7.835,-18 17.5,-18 9.665,0 17.5,8.059 17.5,18 0,9.941 -7.835,18 -17.5,18 C 54.835,173 47,164.941 47,155 Z"
       fill="#2584ff"
       fill-rule="evenodd"
       id="path25542" />
    <path
       d="m 52.8672,159.502 c -1.4633,-1.464 -1.4633,-3.836 0,-5.299 v 0 c 1.4633,-1.464 3.8358,-1.464 5.2991,0 l 7.0618,7.062 c 1.4633,1.463 1.4633,3.835 0,5.299 v 0 c -1.4633,1.463 -3.8357,1.463 -5.299,0 z"
       fill="#ffffff"
       fill-rule="evenodd"
       id="path25544" />
    <path
       d="m 69.5247,145.275 c 1.0346,-1.792 3.3263,-2.406 5.1184,-1.372 v 0 c 1.7922,1.035 2.4062,3.327 1.3715,5.119 l -9.7839,16.946 c -1.0347,1.792 -3.3263,2.406 -5.1184,1.372 v 0 c -1.7922,-1.035 -2.4062,-3.327 -1.3715,-5.119 z"
       fill="#ffffff"
       fill-rule="evenodd"
       id="path25546" />
  </g>
</svg>
