<?xml version="1.0" encoding="UTF-8" standalone="no"?>
<svg
   name="pixel-svg-outer"
   width="256"
   height="256"
   viewBox="0 0 256 256"
   version="1.1"
   id="svg57"
   xmlns="http://www.w3.org/2000/svg"
   xmlns:svg="http://www.w3.org/2000/svg">
  <defs
     id="defs61">
    <clipPath
       id="clip0">
      <rect
         x="550"
         y="509"
         width="184"
         height="182"
         id="rect114" />
    </clipPath>
  </defs>
  <g
     transform="matrix(1.3601982,0,0,1.3601982,-739.09046,-693.8361)"
     id="g464">
    <path
       d="m 547,603 c 0,-49.706 40.294,-90 90,-90 49.706,0 90,40.294 90,90 0,49.706 -40.294,90 -90,90 -49.706,0 -90,-40.294 -90,-90 z"
       fill="#44a57d"
       fill-rule="evenodd"
       id="path458" />
    <path
       d="m 578.658,626.432 c -7.315,-7.316 -7.315,-19.177 0,-26.493 v 0 c 7.316,-7.316 19.177,-7.316 26.493,0 l 35.306,35.306 c 7.316,7.316 7.316,19.177 0,26.493 v -0.001 c -7.316,7.316 -19.177,7.316 -26.493,0 z"
       fill="#ffffff"
       fill-rule="evenodd"
       id="path460" />
    <path
       d="m 661.937,555.305 c 5.173,-8.96 16.631,-12.03 25.591,-6.857 v 0 c 8.96,5.173 12.029,16.63 6.856,25.59 L 645.47,658.76 c -5.173,8.96 -16.631,12.03 -25.591,6.857 h 10e-4 c -8.96,-5.173 -12.03,-16.63 -6.857,-25.59 z"
       fill="#ffffff"
       fill-rule="evenodd"
       id="path462" />
  </g>
</svg>
