<?xml version="1.0" encoding="UTF-8" standalone="no"?>
<svg
   name="pixel-svg-outer"
   width="256"
   height="256"
   viewBox="0 0 256 256"
   version="1.1"
   id="svg57"
   xmlns="http://www.w3.org/2000/svg"
   xmlns:svg="http://www.w3.org/2000/svg">
  <defs
     id="defs61">
    <clipPath
       id="clip0">
      <rect
         x="550"
         y="509"
         width="184"
         height="182"
         id="rect114" />
    </clipPath>
  </defs>
  <g
     transform="matrix(1.3215543,0,0,1.3215543,-34.417583,-29.217908)"
     id="g27070">
    <path
       d="M 44,59.1667 C 44,43.6107 56.6107,31 72.1667,31 H 184.833 C 200.389,31 213,43.6107 213,59.1667 V 177.833 C 213,193.389 200.389,206 184.833,206 H 72.1667 C 56.6107,206 44,193.389 44,177.833 Z"
       stroke="#65bf9b"
       stroke-width="4"
       stroke-miterlimit="8"
       fill="#44a57d"
       fill-rule="evenodd"
       id="path27042" />
    <path
       d="M 86,88.3337 C 86,79.3129 93.3129,72 102.334,72 h 66.332 C 177.687,72 185,79.3129 185,88.3337 V 153.666 C 185,162.687 177.687,170 168.666,170 H 102.334 C 93.3129,170 86,162.687 86,153.666 Z"
       fill="#2e7055"
       fill-rule="evenodd"
       id="path27044" />
    <path
       d="m 107.874,86.9269 11.737,-6.7764 43.405,75.1785 -11.738,6.776 z"
       fill="#ffffff"
       fill-rule="evenodd"
       id="path27046" />
    <rect
       x="0"
       y="0"
       width="13.5529"
       height="86.808296"
       fill="#ffffff"
       transform="matrix(-0.866025,-0.5,-0.5,0.866025,163.016,86.9269)"
       id="rect27048" />
    <rect
       x="100"
       y="73"
       width="71"
       height="14"
       fill="#2e7055"
       id="rect27050" />
    <rect
       x="100"
       y="156"
       width="71"
       height="14"
       fill="#2e7055"
       id="rect27052" />
    <path
       d="M 46,60.5 C 46,52.4919 52.4919,46 60.5,46 68.5081,46 75,52.4919 75,60.5 75,68.5081 68.5081,75 60.5,75 52.4919,75 46,68.5081 46,60.5 Z"
       fill="#378565"
       fill-rule="evenodd"
       id="path27054" />
    <path
       d="M 29,60.5 C 29,55.2533 33.2533,51 38.5,51 h 20 c 5.2467,0 9.5,4.2533 9.5,9.5 v 0 c 0,5.2467 -4.2533,9.5 -9.5,9.5 h -20 C 33.2533,70 29,65.7467 29,60.5 Z"
       fill="#a6a6a6"
       fill-rule="evenodd"
       id="path27056" />
    <path
       d="M 46,99.5 C 46,91.4919 52.4919,85 60.5,85 68.5081,85 75,91.4919 75,99.5 75,107.508 68.5081,114 60.5,114 52.4919,114 46,107.508 46,99.5 Z"
       fill="#378565"
       fill-rule="evenodd"
       id="path27058" />
    <path
       d="M 30,99.5 C 30,94.2533 34.2533,90 39.5,90 h 20 c 5.2467,0 9.5,4.2533 9.5,9.5 v 0 c 0,5.247 -4.2533,9.5 -9.5,9.5 h -20 C 34.2533,109 30,104.747 30,99.5 Z"
       fill="#a6a6a6"
       fill-rule="evenodd"
       id="path27060" />
    <path
       d="m 46,138 c 0,-8.284 6.4919,-15 14.5,-15 8.0081,0 14.5,6.716 14.5,15 0,8.284 -6.4919,15 -14.5,15 C 52.4919,153 46,146.284 46,138 Z"
       fill="#378565"
       fill-rule="evenodd"
       id="path27062" />
    <path
       d="m 29,138 c 0,-4.971 4.0294,-9 9,-9 h 21 c 4.9706,0 9,4.029 9,9 v 0 c 0,4.971 -4.0294,9 -9,9 H 38 c -4.9706,0 -9,-4.029 -9,-9 z"
       fill="#a6a6a6"
       fill-rule="evenodd"
       id="path27064" />
    <path
       d="M 46,176.5 C 46,168.492 52.4919,162 60.5,162 68.5081,162 75,168.492 75,176.5 75,184.508 68.5081,191 60.5,191 52.4919,191 46,184.508 46,176.5 Z"
       fill="#378565"
       fill-rule="evenodd"
       id="path27066" />
    <path
       d="m 30,176.5 c 0,-5.247 4.2533,-9.5 9.5,-9.5 h 20 c 5.2467,0 9.5,4.253 9.5,9.5 v 0 c 0,5.247 -4.2533,9.5 -9.5,9.5 h -20 c -5.2467,0 -9.5,-4.253 -9.5,-9.5 z"
       fill="#a6a6a6"
       fill-rule="evenodd"
       id="path27068" />
  </g>
</svg>
