<?xml version="1.0" encoding="UTF-8" standalone="no"?>
<svg
   name="pixel-svg-outer"
   width="256"
   height="256"
   viewBox="0 0 256 256"
   version="1.1"
   id="svg57"
   xmlns="http://www.w3.org/2000/svg"
   xmlns:svg="http://www.w3.org/2000/svg">
  <defs
     id="defs61">
    <clipPath
       id="clip0">
      <rect
         x="550"
         y="509"
         width="184"
         height="182"
         id="rect114" />
    </clipPath>
  </defs>
  <g
     transform="matrix(1.465366,0,0,1.465366,-431.11785,-398.71059)"
     id="g874">
    <path
       d="m 299,360 c 0,-45.287 36.937,-82 82.5,-82 45.563,0 82.5,36.713 82.5,82 0,45.287 -36.937,82 -82.5,82 -45.563,0 -82.5,-36.713 -82.5,-82 z"
       fill="#4472c4"
       fill-rule="evenodd"
       id="path866" />
    <path
       d="m 381.5,279 c -44.487,0 -80.5,36.013 -80.5,80.5 0,44.487 36.013,80.5 80.5,80.5 44.487,0 80.5,-36.013 80.5,-80.5 0,-44.487 -36.013,-80.5 -80.5,-80.5 z m -72.026,80.5 c 0,-18.854 7.202,-35.801 19.065,-48.724 1.907,1.06 3.814,2.754 4.237,4.237 v 13.346 c 0,0.848 0.212,1.907 0.848,2.542 l 13.981,18.007 1.059,-1.059 c 0.636,-0.636 0.848,-1.695 0.424,-2.542 l -2.542,-4.237 c -1.059,-1.695 0.636,-3.813 2.542,-3.178 0.636,0.212 1.059,0.636 1.271,1.059 l 6.991,13.77 c 0.847,1.483 2.118,2.754 3.601,3.178 l 9.321,3.177 c 0.636,0.212 1.06,0.636 1.271,1.06 l 0.636,1.059 c 0.636,1.483 2.118,2.33 3.813,2.33 h 2.542 c 0.636,0 1.271,0.424 1.695,0.847 l 2.754,4.025 c 0.635,0.848 1.483,1.483 2.542,1.695 l 4.449,1.059 c 1.271,0.212 1.906,1.695 1.483,2.754 0,0 -3.39,3.39 -3.39,8.262 0,13.982 12.711,18.007 12.711,21.184 0,8.686 -1.271,20.761 -1.907,25.421 -5.508,1.272 -11.228,2.119 -17.159,2.119 -39.826,0.635 -72.238,-31.776 -72.238,-71.391 z m 99.142,66.73 c 4.66,-4.025 12.499,-10.804 15.252,-13.769 3.602,-4.025 4.237,-10.593 4.237,-10.593 0,0 14.829,-4.025 14.829,-14.828 0,-7.415 -14.829,-10.593 -14.829,-10.593 -2.542,-8.261 -15.041,-12.71 -25.421,-12.71 -2.33,0 -10.592,4.237 -10.592,4.237 l -4.237,-2.119 V 359.5 c 0,-1.271 -0.847,-2.118 -2.118,-2.118 H 381.5 v -6.356 c 0,-1.271 -0.847,-2.118 -2.118,-2.118 h -2.119 l -2.33,1.483 c -2.118,1.483 -5.084,0.635 -6.144,-1.695 0,0 -2.118,-2.966 -2.118,-4.237 0,-9.109 10.592,-8.473 10.592,-8.473 h 4.661 c 1.059,0 1.906,0.635 2.118,1.694 l 1.271,5.296 c 0.212,0.848 1.059,1.695 2.119,1.695 h 0.847 c 1.059,0 1.907,-0.635 2.118,-1.695 l 1.483,-7.838 c 0.212,-0.635 0.424,-1.271 0.848,-1.906 l 5.931,-7.415 c 1.271,-1.483 2.966,-2.33 4.873,-2.33 h 5.508 c 1.271,0 2.118,-0.847 2.118,-2.119 v -2.118 l -0.636,-0.635 c -1.271,-1.272 -0.423,-3.602 1.483,-3.602 h 1.271 c 1.271,0 2.119,0.848 2.119,2.119 0,1.271 0.847,2.118 2.118,2.118 h 2.119 l 1.271,-5.508 c 0.423,-1.906 -0.424,-3.601 -1.907,-4.66 L 400.99,298.278 c -0.212,-0.212 -0.636,-0.212 -1.06,-0.212 h -3.601 c -2.33,0 -4.237,1.906 -4.237,4.237 v 2.118 c 0,1.271 -0.847,2.118 -2.118,2.118 h -2.119 l -2.118,-2.118 h -6.355 c -1.271,0 -2.119,-0.847 -2.119,-2.118 v -5.296 c 0,-0.636 0.212,-1.271 0.848,-1.695 l 13.557,-5.72 2.119,3.601 c 0.424,0.424 0.847,0.636 1.483,0.636 h 5.296 c 1.271,0 2.118,-0.847 2.118,-2.118 v -1.06 c 29.446,9.11 50.842,36.437 50.842,68.849 0,30.082 -18.642,55.926 -44.91,66.73 z"
       fill="#00b050"
       fill-rule="evenodd"
       id="path868" />
    <path
       d="m 407.568,350.421 -9.821,-3.268 c -0.819,-0.204 -1.432,-0.204 -2.251,0 l -6.956,1.634 c -0.614,0.409 -0.819,1.226 0,2.043 h 9.412 c 0.613,0 1.023,0 1.432,0.204 l 7.161,2.86 c 1.227,0.408 2.455,-0.409 2.455,-1.634 0,-0.817 -0.614,-1.634 -1.432,-1.839 z"
       fill="#00b050"
       fill-rule="evenodd"
       id="path870" />
    <path
       d="m 303.5,359 c 0,-42.802 34.922,-77.5 78,-77.5 43.078,0 78,34.698 78,77.5 0,42.802 -34.922,77.5 -78,77.5 -43.078,0 -78,-34.698 -78,-77.5 z"
       stroke="#404040"
       stroke-width="11.3333"
       stroke-miterlimit="8"
       fill="none"
       fill-rule="evenodd"
       id="path872" />
  </g>
</svg>
