<?xml version="1.0" encoding="UTF-8" standalone="no"?>
<svg
   name="pixel-svg-outer"
   width="256"
   height="256"
   viewBox="0 0 256 256"
   version="1.1"
   id="svg57"
   xmlns="http://www.w3.org/2000/svg"
   xmlns:svg="http://www.w3.org/2000/svg">
  <defs
     id="defs61">
    <clipPath
       id="clip0">
      <rect
         x="550"
         y="509"
         width="184"
         height="182"
         id="rect114" />
    </clipPath>
  </defs>
  <g
     transform="matrix(1.371679,0,0,1.371679,-1455.5618,-701.1383)"
     id="g564">
    <path
       d="m 1065,604 c 0,-49.153 39.85,-89 89,-89 49.15,0 89,39.847 89,89 0,49.153 -39.85,89 -89,89 -49.15,0 -89,-39.847 -89,-89 z"
       fill="#4472c4"
       fill-rule="evenodd"
       id="path558" />
    <rect
       x="1138"
       y="590"
       width="32"
       height="78"
       fill="#ffffff"
       id="rect560" />
    <path
       d="m 1136,555.5 c 0,-10.217 8.06,-18.5 18,-18.5 9.94,0 18,8.283 18,18.5 0,10.217 -8.06,18.5 -18,18.5 -9.94,0 -18,-8.283 -18,-18.5 z"
       fill="#ffffff"
       fill-rule="evenodd"
       id="path562" />
  </g>
</svg>
