<?xml version="1.0" encoding="UTF-8" standalone="no"?>
<svg
   name="pixel-svg-outer"
   width="256"
   height="256"
   viewBox="0 0 256 256"
   version="1.1"
   id="svg57"
   xmlns="http://www.w3.org/2000/svg"
   xmlns:svg="http://www.w3.org/2000/svg">
  <defs
     id="defs61">
    <clipPath
       id="clip0">
      <rect
         x="550"
         y="509"
         width="184"
         height="182"
         id="rect114" />
    </clipPath>
  </defs>
  <g
     transform="matrix(1.089003,0,0,1.089003,-854.99338,9.7638311)"
     id="g22572">
    <path
       d="m 942.464,150.125 c -0.864,14.034 -3.456,27.42 -7.56,38.864 1.944,0.431 3.888,0.863 6.048,0.863 11.016,0 19.872,-8.852 20.088,-19.863 0,-10.58 -8.208,-19.216 -18.576,-19.864 z M 839,124 h 103.68 v 12.955 c 17.28,0.863 31.104,15.329 31.32,33.034 0,18.136 -14.688,32.818 -32.832,32.818 -4.104,0 -7.776,-0.648 -11.232,-1.943 -3.456,7.125 -7.56,13.17 -12.312,18.136 H 864.056 C 848.936,203.239 839,174.307 839,141.273 Z"
       stroke="#a6a6a6"
       stroke-width="4"
       stroke-miterlimit="8"
       fill="#4c86fa"
       fill-rule="evenodd"
       id="path22566" />
    <path
       d="m 919.196,2.1275 c 2.671,3.00801 10.976,12.6962 10.801,19.2201 -0.174,6.5238 -1.335,11.5632 -11.847,19.9232 -10.511,8.3599 -45.587,18.595 -51.22,30.2364 -5.633,11.6414 15.447,32.4238 17.422,39.6118 1.974,7.188 1.568,9.376 -5.575,3.516 -7.143,-5.86 -42.335,-24.2203 -37.283,-38.6744 5.052,-14.4541 55.518,-35.9399 67.597,-48.0501 12.079,-12.1102 3.136,-20.43109 4.878,-24.61105 1.742,-4.179964 2.555,-4.179964 5.227,-1.17195 z"
       stroke="#a6a6a6"
       stroke-width="4"
       stroke-miterlimit="8"
       fill="#db380e"
       fill-rule="evenodd"
       id="path22568" />
    <path
       d="m 942.27,44.864 c 6.453,-1.6718 7.723,-1.0886 2.439,3.2659 -5.284,4.3545 -30.89,14.0355 -34.141,22.8612 -3.252,8.8257 15.749,21.6171 14.632,30.0929 -1.118,8.476 -17.274,17.807 -21.339,20.762 -4.064,2.954 -3.759,-0.389 -3.048,-3.033 0.711,-2.644 9.45,-6.493 7.316,-12.83 -2.134,-6.3376 -19.763,-17.2239 -20.119,-25.1942 -0.356,-7.9703 8.739,-16.6794 17.985,-22.628 9.247,-5.9486 29.823,-11.625 36.275,-13.2968 z"
       stroke="#a6a6a6"
       stroke-width="4"
       stroke-miterlimit="8"
       fill="#db380e"
       fill-rule="evenodd"
       id="path22570" />
  </g>
</svg>
