<?xml version="1.0" encoding="UTF-8" standalone="no"?>
<svg
   name="pixel-svg-outer"
   width="256"
   height="256"
   viewBox="0 0 256 256"
   version="1.1"
   id="svg57"
   xmlns="http://www.w3.org/2000/svg"
   xmlns:svg="http://www.w3.org/2000/svg">
  <defs
     id="defs61">
    <clipPath
       id="clip0">
      <rect
         x="550"
         y="509"
         width="184"
         height="182"
         id="rect114" />
    </clipPath>
  </defs>
  <g
     transform="matrix(1.2669168,0,0,1.2669168,-346.77374,-636.63192)"
     id="g736">
    <path
       d="m 278.5,647.5 h 79.417 v 5.054 c 0,1.395 1.091,2.527 2.436,2.527 h 28.294 c 1.345,0 2.436,-1.132 2.436,-2.527 V 647.5 H 470.5 v 6.935 c 0,5.559 -3.319,10.065 -7.413,10.065 H 285.913 c -4.094,0 -7.413,-4.506 -7.413,-10.065 z"
       stroke="#bfbfbf"
       stroke-width="1.33333"
       stroke-miterlimit="8"
       fill="#404040"
       fill-rule="evenodd"
       id="path722" />
    <path
       d="m 315.945,545.5 h 116.11 c 6.321,0 11.445,5.112 11.445,11.418 V 641.5 h -139 v -84.582 c 0,-6.306 5.124,-11.418 11.445,-11.418 z"
       stroke="#bfbfbf"
       stroke-width="1.33333"
       stroke-miterlimit="8"
       fill="#404040"
       fill-rule="evenodd"
       id="path724" />
    <path
       d="m 314,556.984 c 0,-2.2 1.784,-3.984 3.984,-3.984 h 110.032 c 2.2,0 3.984,1.784 3.984,3.984 v 73.032 c 0,2.2 -1.784,3.984 -3.984,3.984 H 317.984 c -2.2,0 -3.984,-1.784 -3.984,-3.984 z"
       fill="#8faadc"
       fill-rule="evenodd"
       id="path726" />
    <path
       d="m 325,568.5 c 0,-3.038 2.462,-5.5 5.5,-5.5 h 85 c 3.038,0 5.5,2.462 5.5,5.5 v 0 c 0,3.038 -2.462,5.5 -5.5,5.5 h -85 c -3.038,0 -5.5,-2.462 -5.5,-5.5 z"
       fill="#b4c7e7"
       fill-rule="evenodd"
       id="path728" />
    <path
       d="m 325,592.5 c 0,-3.59 2.91,-6.5 6.5,-6.5 h 56 c 3.59,0 6.5,2.91 6.5,6.5 v 0 c 0,3.59 -2.91,6.5 -6.5,6.5 h -56 c -3.59,0 -6.5,-2.91 -6.5,-6.5 z"
       fill="#b4c7e7"
       fill-rule="evenodd"
       id="path730" />
    <path
       d="m 325,616.5 c 0,-3.038 2.462,-5.5 5.5,-5.5 h 41 c 3.038,0 5.5,2.462 5.5,5.5 v 0 c 0,3.038 -2.462,5.5 -5.5,5.5 h -41 c -3.038,0 -5.5,-2.462 -5.5,-5.5 z"
       fill="#b4c7e7"
       fill-rule="evenodd"
       id="path732" />
    <path
       d="m 387,616.5 c 0,-3.038 2.462,-5.5 5.5,-5.5 h 21 c 3.038,0 5.5,2.462 5.5,5.5 v 0 c 0,3.038 -2.462,5.5 -5.5,5.5 h -21 c -3.038,0 -5.5,-2.462 -5.5,-5.5 z"
       fill="#b4c7e7"
       fill-rule="evenodd"
       id="path734" />
  </g>
</svg>
