<?xml version="1.0" encoding="UTF-8" standalone="no"?>
<svg
   name="pixel-svg-outer"
   width="256"
   height="256"
   viewBox="0 0 256 256"
   version="1.1"
   id="svg57"
   xmlns="http://www.w3.org/2000/svg"
   xmlns:svg="http://www.w3.org/2000/svg">
  <defs
     id="defs61">
    <clipPath
       id="clip0">
      <rect
         x="550"
         y="509"
         width="184"
         height="182"
         id="rect114" />
    </clipPath>
  </defs>
  <g
     transform="matrix(1.3710736,0,0,1.3710736,-1454.1959,-33.873978)"
     id="g4670">
    <path
       d="m 1127.39,28.0397 h 50.75 c 9.87,0 17.86,7.9962 17.86,17.8602 v 17.8601 0 18.7998 -10e-5 11.0519 c 0,11.3064 -9.16,20.4724 -20.47,20.4724 h -50.49 l -3.75,-0.378 -0.74,0.153 c -5.66,1.888 -10.55,5.712 -13.75,10.899 l -2.23,4.796 v 17.349 l 0.22,0.844 -0.22,0.09 v 11.775 h -17.86 c -2.47,0 -4.82,-0.5 -6.95,-1.404 l -0.48,-0.318 -0.73,0.292 -0.33,-1.013 -4.14,-2.788 c -3.23,-3.233 -5.23,-7.698 -5.23,-12.629 V 90.999 c 0,-9.8639 7.99,-17.8602 17.86,-17.8602 l 17.86,1e-4 v -1e-4 h 47.36 V 63.76 h -42.4 V 45.8999 c 0,-9.864 8,-17.8602 17.86,-17.8602 z"
       fill="#0070c0"
       fill-rule="evenodd"
       id="path4662" />
    <path
       d="m 1121,44.5 c 0,-4.6944 3.81,-8.5 8.5,-8.5 4.69,0 8.5,3.8056 8.5,8.5 0,4.6944 -3.81,8.5 -8.5,8.5 -4.69,0 -8.5,-3.8056 -8.5,-8.5 z"
       fill="#ffffff"
       fill-rule="evenodd"
       id="path4664" />
    <path
       d="m 1202.53,76.5415 h 17.86 c 2.47,0 4.82,0.4998 6.95,1.4035 l 0.48,0.3184 0.73,-0.2918 0.33,1.0124 4.14,2.7886 c 3.23,3.2321 5.23,7.6971 5.23,12.629 v 50.7524 c 0,9.864 -7.99,17.86 -17.86,17.86 h -17.86 v 0 h -47.36 v 9.379 h 42.4 v 17.86 c 0,9.864 -8,17.86 -17.86,17.86 h -50.75 c -9.87,0 -17.86,-7.996 -17.86,-17.86 v -17.86 0 -18.8 0 -11.051 c 0,-11.307 9.16,-20.473 20.47,-20.473 h 50.49 l 3.75,0.378 0.74,-0.153 c 5.66,-1.888 10.55,-5.712 13.75,-10.899 l 2.23,-4.796 V 89.2503 l -0.22,-0.8441 0.22,-0.0898 z"
       fill="#ffcd3d"
       fill-rule="evenodd"
       id="path4666" />
    <path
       d="m 1186,191.5 c 0,4.694 -3.81,8.5 -8.5,8.5 -4.69,0 -8.5,-3.806 -8.5,-8.5 0,-4.694 3.81,-8.5 8.5,-8.5 4.69,0 8.5,3.806 8.5,8.5 z"
       fill="#ffffff"
       fill-rule="evenodd"
       id="path4668" />
  </g>
</svg>
