<?xml version="1.0" encoding="UTF-8" standalone="no"?>
<svg
   name="pixel-svg-outer"
   width="256"
   height="256"
   viewBox="0 0 256 256"
   version="1.1"
   id="svg57"
   xmlns="http://www.w3.org/2000/svg"
   xmlns:svg="http://www.w3.org/2000/svg">
  <defs
     id="defs61">
    <clipPath
       id="clip0">
      <rect
         x="550"
         y="509"
         width="184"
         height="182"
         id="rect114" />
    </clipPath>
  </defs>
  <g
     transform="matrix(1.3690364,0,0,1.3690364,-396.67347,-38.155139)"
     id="g9138">
    <path
       d="M 297,35 H 425.057 L 469,78.9425 V 208 H 297 Z"
       fill="#4472c4"
       fill-rule="evenodd"
       id="path9126" />
    <path
       d="M 320,133.834 C 320,127.298 325.298,122 331.834,122 h 105.332 c 6.536,0 11.834,5.298 11.834,11.834 v 47.332 C 449,187.702 443.702,193 437.166,193 H 331.834 C 325.298,193 320,187.702 320,181.166 Z"
       fill="#ffffff"
       fill-rule="evenodd"
       id="path9128" />
    <path
       d="M 334,54.1669 C 334,49.1042 338.104,45 343.167,45 h 68.666 c 5.063,0 9.167,4.1042 9.167,9.1669 V 90.8331 C 421,95.8958 416.896,100 411.833,100 H 343.167 C 338.104,100 334,95.8958 334,90.8331 Z"
       fill="#ffffff"
       fill-rule="evenodd"
       id="path9130" />
    <path
       d="M 387,59.3334 C 387,57.4924 388.492,56 390.333,56 h 13.334 c 1.841,0 3.333,1.4924 3.333,3.3334 V 83.6666 C 407,85.5076 405.508,87 403.667,87 H 390.333 C 388.492,87 387,85.5076 387,83.6666 Z"
       fill="#4472c4"
       fill-rule="evenodd"
       id="path9132" />
    <path
       d="m 343,144.5 c 0,-3.59 2.91,-6.5 6.5,-6.5 h 73 c 3.59,0 6.5,2.91 6.5,6.5 v 0 c 0,3.59 -2.91,6.5 -6.5,6.5 h -73 c -3.59,0 -6.5,-2.91 -6.5,-6.5 z"
       fill="#b4c7e7"
       fill-rule="evenodd"
       id="path9134" />
    <path
       d="m 343,172 c 0,-3.866 3.134,-7 7,-7 h 72 c 3.866,0 7,3.134 7,7 v 0 c 0,3.866 -3.134,7 -7,7 h -72 c -3.866,0 -7,-3.134 -7,-7 z"
       fill="#b4c7e7"
       fill-rule="evenodd"
       id="path9136" />
  </g>
</svg>
