<?xml version="1.0" encoding="UTF-8" standalone="no"?>
<svg
   name="pixel-svg-outer"
   width="256"
   height="256"
   viewBox="0 0 256 256"
   version="1.1"
   id="svg57"
   xmlns="http://www.w3.org/2000/svg"
   xmlns:svg="http://www.w3.org/2000/svg">
  <defs
     id="defs61">
    <clipPath
       id="clip0">
      <rect
         x="550"
         y="509"
         width="184"
         height="182"
         id="rect114" />
    </clipPath>
  </defs>
  <g
     transform="matrix(1.4144434,0,0,1.4144434,-777.55719,-381.91985)"
     id="g910">
    <rect
       x="553"
       y="282"
       width="174"
       height="156"
       fill="#a6a6a6"
       id="rect898" />
    <rect
       x="561"
       y="320"
       width="160"
       height="112"
       fill="#ffffff"
       id="rect900" />
    <path
       d="M 557,435 H 723 V 323 H 557 Z m 4.368,-4.392 v -30.745 h 50.237 v 30.745 z m 102.658,-65.883 v 30.746 h -48.052 v -30.746 z m -48.052,-4.392 v -32.941 h 48.052 v 32.941 z m 52.421,4.392 h 50.237 v 30.746 h -50.237 z m -56.79,30.746 h -50.237 v -30.746 h 50.237 z m 4.369,35.137 v -30.745 h 48.052 v 30.745 z m 52.421,0 v -30.745 h 50.237 v 30.745 z m 50.237,-70.275 h -50.237 v -32.941 h 50.237 z M 611.605,327.392 v 32.941 h -50.237 v -32.941 z"
       fill="#2f5597"
       fill-rule="evenodd"
       id="path902" />
    <rect
       x="557"
       y="286"
       width="55"
       height="37"
       fill="#2f5597"
       id="rect904" />
    <rect
       x="612"
       y="286"
       width="56"
       height="37"
       fill="#2f5597"
       id="rect906" />
    <rect
       x="668"
       y="286"
       width="55"
       height="37"
       fill="#2f5597"
       id="rect908" />
  </g>
</svg>
