<?xml version="1.0" encoding="UTF-8" standalone="no"?>
<svg
   name="pixel-svg-outer"
   width="256"
   height="256"
   viewBox="0 0 256 256"
   version="1.1"
   id="svg57"
   xmlns="http://www.w3.org/2000/svg"
   xmlns:svg="http://www.w3.org/2000/svg">
  <defs
     id="defs61">
    <clipPath
       id="clip0">
      <rect
         x="550"
         y="509"
         width="184"
         height="182"
         id="rect114" />
    </clipPath>
  </defs>
  <g
     transform="matrix(1.4072785,0,0,1.4072785,-774.40193,-723.50946)"
     id="g528">
    <path
       d="M 563,551.75 C 563,537.529 574.529,526 588.75,526 h 104.5 c 14.221,0 25.75,11.529 25.75,25.75 v 51.5 C 719,617.471 707.471,629 693.25,629 H 588.75 C 574.529,629 563,617.471 563,603.25 Z"
       stroke="#404040"
       stroke-width="16"
       stroke-miterlimit="8"
       fill="#8faadc"
       fill-rule="evenodd"
       id="path514" />
    <path
       d="M 581,673.528 C 581,664.4 588.4,657 597.528,657 h 86.944 C 693.6,657 701,664.4 701,673.528 v 0.944 C 701,683.6 693.6,691 684.472,691 H 597.528 C 588.4,691 581,683.6 581,674.472 Z"
       fill="#404040"
       fill-rule="evenodd"
       id="path516" />
    <path
       d="m 671,631 -8.5,34 h -43 L 611,631 Z"
       fill="#404040"
       fill-rule="evenodd"
       id="path518" />
    <path
       d="m 587,554.5 c 0,-3.038 2.462,-5.5 5.5,-5.5 h 96 c 3.038,0 5.5,2.462 5.5,5.5 v 0 c 0,3.038 -2.462,5.5 -5.5,5.5 h -96 c -3.038,0 -5.5,-2.462 -5.5,-5.5 z"
       fill="#b4c7e7"
       fill-rule="evenodd"
       id="path520" />
    <path
       d="m 587,577 c 0,-3.314 2.686,-6 6,-6 h 65 c 3.314,0 6,2.686 6,6 v 0 c 0,3.314 -2.686,6 -6,6 h -65 c -3.314,0 -6,-2.686 -6,-6 z"
       fill="#b4c7e7"
       fill-rule="evenodd"
       id="path522" />
    <path
       d="m 587,599 c 0,-3.314 2.686,-6 6,-6 h 72 c 3.314,0 6,2.686 6,6 v 0 c 0,3.314 -2.686,6 -6,6 h -72 c -3.314,0 -6,-2.686 -6,-6 z"
       fill="#b4c7e7"
       fill-rule="evenodd"
       id="path524" />
    <path
       d="m 680,592.667 c 0,-0.921 0.746,-1.667 1.667,-1.667 h 6.666 c 0.921,0 1.667,0.746 1.667,1.667 v 10.666 c 0,0.921 -0.746,1.667 -1.667,1.667 h -6.666 C 680.746,605 680,604.254 680,603.333 Z"
       fill="#b4c7e7"
       fill-rule="evenodd"
       id="path526" />
  </g>
</svg>
