<?xml version="1.0" encoding="UTF-8" standalone="no"?>
<svg
   name="pixel-svg-outer"
   width="256"
   height="256"
   viewBox="0 0 256 256"
   version="1.1"
   id="svg57"
   xmlns="http://www.w3.org/2000/svg"
   xmlns:svg="http://www.w3.org/2000/svg">
  <defs
     id="defs61">
    <clipPath
       id="clip0">
      <rect
         x="550"
         y="509"
         width="184"
         height="182"
         id="rect114" />
    </clipPath>
  </defs>
  <g
     transform="matrix(1.3736692,0,0,1.3736692,-390.20318,-32.004635)"
     id="g31552">
    <rect
       x="329"
       y="29"
       width="122"
       height="166"
       fill="#4472c4"
       id="rect31534" />
    <rect
       x="310.5"
       y="43.848301"
       width="125.652"
       height="160.65199"
       fill="#ffffff"
       id="rect31536" />
    <path
       d="M 436.152,43.8483 446.5,33.5001 V 194.152 L 436.152,204.5 Z"
       fill="#cdcdcd"
       fill-rule="evenodd"
       id="path31538" />
    <path
       d="M 310.5,43.8483 320.848,33.5001 H 446.5 l -10.348,10.3482 z"
       fill="#ffffff"
       fill-rule="evenodd"
       id="path31540" />
    <path
       d="M 310.5,43.8483 320.848,33.5001 H 446.5 V 194.152 L 436.152,204.5 H 310.5 Z m 0,0 H 436.152 L 446.5,33.5001 M 436.152,43.8483 V 204.5"
       stroke="#2f528f"
       stroke-width="1.33333"
       stroke-miterlimit="8"
       fill="none"
       fill-rule="evenodd"
       id="path31542" />
    <rect
       x="304"
       y="44"
       width="26"
       height="161"
       id="rect31544" />
    <path
       d="m 304,41 14,-12 h 14 l -28,24 z"
       fill-rule="evenodd"
       id="path31546" />
    <rect
       x="326"
       y="43"
       width="113"
       height="162"
       fill="#4472c4"
       id="rect31548" />
    <rect
       x="325"
       y="29"
       width="10"
       height="4"
       id="rect31550" />
  </g>
</svg>
