<?xml version="1.0" encoding="UTF-8" standalone="no"?>
<svg
   name="pixel-svg-outer"
   width="256"
   height="256"
   viewBox="0 0 256 256"
   version="1.1"
   id="svg57"
   xmlns="http://www.w3.org/2000/svg"
   xmlns:svg="http://www.w3.org/2000/svg">
  <defs
     id="defs61">
    <clipPath
       id="clip0">
      <rect
         x="550"
         y="509"
         width="184"
         height="182"
         id="rect114" />
    </clipPath>
  </defs>
  <g
     transform="matrix(1.2870384,0,0,1.2870384,-363.92878,-650.65893)"
     id="g964">
    <path
       d="M 288,541.501 C 288,524.103 302.103,510 319.501,510 H 445.499 C 462.897,510 477,524.103 477,541.501 V 667.499 C 477,684.897 462.897,699 445.499,699 H 319.501 C 302.103,699 288,684.897 288,667.499 Z"
       fill="#c00000"
       fill-rule="evenodd"
       id="path958" />
    <path
       d="m 315.874,537.986 c 9.165,-9.165 24.024,-9.165 33.189,0 l 99.878,99.878 c 9.165,9.165 9.165,24.024 0,33.189 v 0 c -9.165,9.165 -24.025,9.165 -33.19,0 l -99.877,-99.877 c -9.165,-9.166 -9.165,-24.025 0,-33.19 z"
       fill="#ffffff"
       fill-rule="evenodd"
       id="path960" />
    <path
       d="m 448.941,537.986 c 9.165,9.165 9.165,24.024 0,33.19 l -99.878,99.877 c -9.165,9.165 -24.024,9.165 -33.189,0 v 0 c -9.165,-9.165 -9.165,-24.025 0,-33.19 l 99.877,-99.877 c 9.165,-9.165 24.025,-9.165 33.19,0 z"
       fill="#ffffff"
       fill-rule="evenodd"
       id="path962" />
  </g>
</svg>
