<?xml version="1.0" encoding="UTF-8" standalone="no"?>
<svg
   name="pixel-svg-outer"
   width="256"
   height="256"
   viewBox="0 0 256 256"
   version="1.1"
   id="svg57"
   xmlns="http://www.w3.org/2000/svg"
   xmlns:svg="http://www.w3.org/2000/svg">
  <defs
     id="defs61">
    <clipPath
       id="clip0">
      <rect
         x="550"
         y="509"
         width="184"
         height="182"
         id="rect114" />
    </clipPath>
  </defs>
  <g
     transform="matrix(1.1127708,0,0,1.1127708,-9.2292235,14.026887)"
     id="g14352">
    <path
       d="m 112.02,18 c 17.503,0 32.521,9.5291 38.936,23.1097 l 1.413,4.0772 1.928,-0.536 c 1.726,-0.3162 3.513,-0.4823 5.343,-0.4823 14.641,0 26.509,10.6277 26.509,23.7375 l -0.186,1.6556 4.145,-0.2801 c 20.927,0 37.892,11.3731 37.892,25.4026 0,14.0298 -16.965,25.4028 -37.892,25.4028 -2.616,0 -5.17,-0.178 -7.636,-0.516 l -6.453,-1.343 -1.167,1.925 c -4.764,6.314 -12.832,10.466 -21.982,10.466 -7.321,0 -13.948,-2.657 -18.746,-6.953 l -0.629,-0.683 -0.631,0.466 c -6.048,3.658 -13.338,5.794 -21.186,5.794 -3.924,0 -7.708,-0.534 -11.268,-1.525 l -3.1028,-1.095 -1.2704,1.379 C 90.5181,132.944 82.8941,136 74.4728,136 61.8409,136 51.0027,129.123 46.3731,119.322 l -0.9302,-2.683 -1.1413,0.079 C 28.6711,116.718 16,107.981 16,97.2029 16,87.7723 25.7013,79.9041 38.5979,78.0844 L 40.1723,77.975 41.133,76.3902 C 47.3377,68.1664 57.8453,62.7594 69.7632,62.7594 l 0.7442,0.0337 -0.5261,-3.0865 C 69.8371,58.4346 69.7632,57.144 69.7632,55.8379 69.7632,34.9406 88.6821,18 112.02,18 Z"
       stroke="#177dc0"
       stroke-width="8"
       stroke-miterlimit="8"
       fill="#cbebf9"
       fill-rule="evenodd"
       id="path14340" />
    <path
       d="m 159.671,45 5.281,0.4774 c 12.086,2.2176 21.177,11.8065 21.177,23.2994 l -0.186,1.6587 4.147,-0.2807 c 20.937,0 37.91,11.3948 37.91,25.451 0,14.0562 -16.973,25.4512 -37.91,25.4512 -2.617,0 -5.173,-0.178 -7.64,-0.517 l -6.456,-1.346 -1.168,1.929 c -4.766,6.326 -12.838,10.486 -21.993,10.486 -7.324,0 -13.955,-2.662 -18.754,-6.966 l -0.63,-0.685 -0.632,0.467 c -6.05,3.665 -13.344,5.806 -21.196,5.806 -3.925,0 -7.712,-0.535 -11.273,-1.529 l -3.1044,-1.096 -1.2709,1.381 C 90.4513,133.938 82.8235,137 74.3981,137 L 72.1017,136.844 72,135.585 c 0,-38.8558 34.641,-72.6534 85.67,-89.9825 z"
       fill="#a5dcf5"
       fill-rule="evenodd"
       id="path14342" />
    <path
       d="m 112.02,17 c 17.503,0 32.521,9.5291 38.936,23.1097 l 1.413,4.0772 1.928,-0.536 c 1.726,-0.3162 3.513,-0.4823 5.343,-0.4823 14.641,0 26.509,10.6277 26.509,23.7375 l -0.186,1.6556 4.145,-0.2801 c 20.927,0 37.892,11.3731 37.892,25.4026 0,14.0298 -16.965,25.4028 -37.892,25.4028 -2.616,0 -5.17,-0.178 -7.636,-0.516 l -6.453,-1.343 -1.167,1.925 c -4.764,6.314 -12.832,10.466 -21.982,10.466 -7.321,0 -13.948,-2.657 -18.746,-6.953 l -0.629,-0.683 -0.631,0.466 c -6.048,3.658 -13.338,5.794 -21.186,5.794 -3.924,0 -7.708,-0.534 -11.268,-1.525 l -3.1028,-1.095 -1.2704,1.379 C 90.5181,131.944 82.8941,135 74.4728,135 61.8409,135 51.0027,128.123 46.3731,118.322 l -0.9302,-2.683 -1.1413,0.079 C 28.6711,115.718 16,106.981 16,96.2029 16,86.7723 25.7013,78.9041 38.5979,77.0844 L 40.1723,76.975 41.133,75.3902 C 47.3377,67.1664 57.8453,61.7594 69.7632,61.7594 l 0.7442,0.0337 -0.5261,-3.0865 C 69.8371,57.4346 69.7632,56.144 69.7632,54.8379 69.7632,33.9406 88.6821,17 112.02,17 Z"
       stroke="#177dc0"
       stroke-width="8"
       stroke-miterlimit="8"
       fill="none"
       fill-rule="evenodd"
       id="path14344" />
    <path
       d="m 142.031,86 c 11.947,0 22.197,6.6625 26.575,16.158 l 1.108,3.273 2.025,-0.206 c 7.887,0 14.956,3.542 19.744,9.142 l 2.057,2.859 0.612,-0.191 c 1.508,-0.311 3.071,-0.474 4.671,-0.474 12.8,0 23.177,10.441 23.177,23.32 0,12.88 -10.377,23.321 -23.177,23.321 -1.6,0 -3.163,-0.164 -4.671,-0.474 l -2.937,-0.917 -1.742,1.446 c -4.197,2.853 -9.255,4.518 -14.701,4.518 -4.765,0 -9.234,-1.275 -13.088,-3.505 l -0.356,-0.248 -2.004,1.663 c -4.937,3.356 -10.887,5.315 -17.293,5.315 -6.405,0 -12.356,-1.959 -17.292,-5.315 l -2.558,-2.123 -1.619,0.76 c -3.316,1.221 -6.897,1.888 -10.634,1.888 C 92.847,166.21 79,152.278 79,135.091 c 0,-17.186 13.847,-31.119 30.928,-31.119 1.068,0 2.123,0.055 3.162,0.161 l 1.614,0.248 0.752,-2.223 C 119.835,92.6625 130.085,86 142.031,86 Z"
       stroke="#177dc0"
       stroke-width="8"
       stroke-miterlimit="8"
       fill="#cbebf9"
       fill-rule="evenodd"
       id="path14346" />
    <path
       d="m 172.473,105 4.965,0.557 c 5.545,1.264 10.423,4.321 14.017,8.541 l 2.06,2.873 0.611,-0.192 c 1.51,-0.312 3.074,-0.476 4.676,-0.476 12.812,0 23.198,10.49 23.198,23.431 0,12.94 -10.386,23.431 -23.198,23.431 -1.602,0 -3.166,-0.164 -4.676,-0.476 l -2.938,-0.922 -1.745,1.454 c -4.2,2.866 -9.263,4.539 -14.714,4.539 -4.769,0 -9.242,-1.281 -13.099,-3.521 l -0.357,-0.25 -2.006,1.671 c -4.941,3.372 -10.897,5.34 -17.308,5.34 -6.411,0 -12.367,-1.968 -17.308,-5.34 l -2.56,-2.134 -1.621,0.764 -4.47,1.22 0.609,-2.489 c 6.552,-19.966 22.438,-37.812 44.69,-51.688 z"
       fill="#a5dcf5"
       fill-rule="evenodd"
       id="path14348" />
    <path
       d="m 145.031,86 c 11.947,0 22.197,6.6625 26.575,16.158 l 1.108,3.273 2.025,-0.206 c 7.887,0 14.956,3.542 19.744,9.142 l 2.057,2.859 0.612,-0.191 c 1.508,-0.311 3.071,-0.474 4.671,-0.474 12.8,0 23.177,10.441 23.177,23.32 0,12.88 -10.377,23.321 -23.177,23.321 -1.6,0 -3.163,-0.164 -4.671,-0.474 l -2.937,-0.917 -1.742,1.446 c -4.197,2.853 -9.255,4.518 -14.701,4.518 -4.765,0 -9.234,-1.275 -13.088,-3.505 l -0.356,-0.248 -2.004,1.663 c -4.937,3.356 -10.887,5.315 -17.293,5.315 -6.405,0 -12.356,-1.959 -17.292,-5.315 l -2.558,-2.123 -1.619,0.76 c -3.316,1.221 -6.897,1.888 -10.634,1.888 C 95.847,166.21 82,152.278 82,135.091 c 0,-17.186 13.847,-31.119 30.928,-31.119 1.068,0 2.123,0.055 3.162,0.161 l 1.614,0.248 0.752,-2.223 C 122.835,92.6625 133.085,86 145.031,86 Z"
       stroke="#177dc0"
       stroke-width="8"
       stroke-miterlimit="8"
       fill="none"
       fill-rule="evenodd"
       id="path14350" />
  </g>
</svg>
