<?xml version="1.0" encoding="UTF-8" standalone="no"?>
<svg
   name="pixel-svg-outer"
   width="256"
   height="256"
   viewBox="0 0 256 256"
   version="1.1"
   id="svg57"
   xmlns="http://www.w3.org/2000/svg"
   xmlns:svg="http://www.w3.org/2000/svg">
  <defs
     id="defs61">
    <clipPath
       id="clip0">
      <rect
         x="550"
         y="509"
         width="184"
         height="182"
         id="rect114" />
    </clipPath>
  </defs>
  <g
     transform="matrix(1.347334,0,0,1.347334,-1430.5071,-359.57628)"
     id="g7638">
    <path
       d="m 1085,291.5 c 0,-8.56 7.16,-15.5 16,-15.5 8.84,0 16,6.94 16,15.5 0,8.56 -7.16,15.5 -16,15.5 -8.84,0 -16,-6.94 -16,-15.5 z"
       stroke="#a6a6a6"
       stroke-width="6"
       stroke-miterlimit="8"
       fill="#f54236"
       fill-rule="evenodd"
       id="path7618" />
    <path
       d="m 1191,291.5 c 0,-8.56 7.16,-15.5 16,-15.5 8.84,0 16,6.94 16,15.5 0,8.56 -7.16,15.5 -16,15.5 -8.84,0 -16,-6.94 -16,-15.5 z"
       stroke="#a6a6a6"
       stroke-width="6"
       stroke-miterlimit="8"
       fill="#f54236"
       fill-rule="evenodd"
       id="path7620" />
    <path
       d="m 1086,369.667 c 0,-3.682 2.98,-6.667 6.67,-6.667 h 26.66 c 3.69,0 6.67,2.985 6.67,6.667 v 74.666 c 0,3.682 -2.98,6.667 -6.67,6.667 h -26.66 c -3.69,0 -6.67,-2.985 -6.67,-6.667 z"
       stroke="#a6a6a6"
       stroke-width="4"
       stroke-linejoin="round"
       stroke-miterlimit="10"
       fill="#404040"
       fill-rule="evenodd"
       id="path7622" />
    <path
       d="m 1188,369.667 c 0,-3.682 2.98,-6.667 6.67,-6.667 h 26.66 c 3.69,0 6.67,2.985 6.67,6.667 v 74.666 c 0,3.682 -2.98,6.667 -6.67,6.667 h -26.66 c -3.69,0 -6.67,-2.985 -6.67,-6.667 z"
       stroke="#a6a6a6"
       stroke-width="4"
       stroke-linejoin="round"
       stroke-miterlimit="10"
       fill="#404040"
       fill-rule="evenodd"
       id="path7624" />
    <path
       d="M 1079.75,322 H 1100 l -25.03,69 -3.53,-2.364 c -2.13,-2.113 -3.44,-5.032 -3.44,-8.256 v -46.704 c 0,-6.448 5.26,-11.676 11.75,-11.676 z"
       fill="#fedf49"
       fill-rule="evenodd"
       id="path7626" />
    <path
       d="m 1075,392 25.38,-70 H 1133 l -25.38,70 z"
       fill-rule="evenodd"
       id="path7628" />
    <path
       d="m 1109,392 25.38,-70 H 1167 l -25.38,70 z"
       fill="#fedf49"
       fill-rule="evenodd"
       id="path7630" />
    <path
       d="m 1143,392 25.38,-70 H 1201 l -25.38,70 z"
       fill-rule="evenodd"
       id="path7632" />
    <path
       d="m 1178,392 25.38,-70 H 1236 l -25.38,70 z"
       fill="#fedf49"
       fill-rule="evenodd"
       id="path7634" />
    <path
       d="M 1231.25,392 H 1211 l 25.03,-69 3.53,2.364 c 2.13,2.113 3.44,5.032 3.44,8.256 v 46.704 c 0,6.448 -5.26,11.676 -11.75,11.676 z"
       fill-rule="evenodd"
       id="path7636" />
  </g>
</svg>
