<?xml version="1.0" encoding="UTF-8" standalone="no"?>
<svg
   name="pixel-svg-outer"
   width="256"
   height="256"
   viewBox="0 0 256 256"
   version="1.1"
   id="svg57"
   xmlns="http://www.w3.org/2000/svg"
   xmlns:svg="http://www.w3.org/2000/svg">
  <defs
     id="defs61">
    <clipPath
       id="clip0">
      <rect
         x="550"
         y="509"
         width="184"
         height="182"
         id="rect114" />
    </clipPath>
  </defs>
  <g
     transform="matrix(1.2992016,0,0,1.2992016,-28.5522,-27.399352)"
     id="g33058">
    <path
       d="M 39,65.0005 C 39,50.0886 51.0885,38 66.0005,38 H 174.999 C 189.911,38 202,50.0886 202,65.0005 V 172.999 C 202,187.911 189.911,200 174.999,200 H 66.0005 C 51.0885,200 39,187.911 39,172.999 Z"
       stroke="#262626"
       stroke-width="16"
       stroke-miterlimit="8"
       fill="#d9d9d9"
       fill-rule="evenodd"
       id="path33038" />
    <path
       d="M 66,63.4999 C 66,57.701 70.701,53 76.5,53 v 0 C 82.299,53 87,57.701 87,63.4999 V 172.5 c 0,5.799 -4.701,10.5 -10.5,10.5 v 0 C 70.701,183 66,178.299 66,172.5 Z"
       fill="#7f7f7f"
       fill-rule="evenodd"
       id="path33040" />
    <path
       d="M 56,84.5 C 56,73.1782 65.1782,64 76.5,64 87.8218,64 97,73.1782 97,84.5 97,95.8218 87.8218,105 76.5,105 65.1782,105 56,95.8218 56,84.5 Z"
       fill="#7f7f7f"
       fill-rule="evenodd"
       id="path33042" />
    <path
       d="m 65,85 c 0,-6.6274 5.3726,-12 12,-12 6.6274,0 12,5.3726 12,12 0,6.6274 -5.3726,12 -12,12 -6.6274,0 -12,-5.3726 -12,-12 z"
       fill="#d9d9d9"
       fill-rule="evenodd"
       id="path33044" />
    <path
       d="M 111,63.4999 C 111,57.701 115.701,53 121.5,53 v 0 c 5.799,0 10.5,4.701 10.5,10.4999 V 172.5 c 0,5.799 -4.701,10.5 -10.5,10.5 v 0 c -5.799,0 -10.5,-4.701 -10.5,-10.5 z"
       fill="#7f7f7f"
       fill-rule="evenodd"
       id="path33046" />
    <path
       d="m 101,152.5 c 0,-11.322 9.178,-20.5 20.5,-20.5 11.322,0 20.5,9.178 20.5,20.5 0,11.322 -9.178,20.5 -20.5,20.5 -11.322,0 -20.5,-9.178 -20.5,-20.5 z"
       fill="#7f7f7f"
       fill-rule="evenodd"
       id="path33048" />
    <path
       d="m 109,152.5 c 0,-6.904 5.596,-12.5 12.5,-12.5 6.904,0 12.5,5.596 12.5,12.5 0,6.904 -5.596,12.5 -12.5,12.5 -6.904,0 -12.5,-5.596 -12.5,-12.5 z"
       fill="#d9d9d9"
       fill-rule="evenodd"
       id="path33050" />
    <path
       d="m 155,64 c 0,-6.0752 4.925,-11 11,-11 v 0 c 6.075,0 11,4.9248 11,11 v 108 c 0,6.075 -4.925,11 -11,11 v 0 c -6.075,0 -11,-4.925 -11,-11 z"
       fill="#7f7f7f"
       fill-rule="evenodd"
       id="path33052" />
    <path
       d="m 145,116.5 c 0,-11.322 9.402,-20.5 21,-20.5 11.598,0 21,9.178 21,20.5 0,11.322 -9.402,20.5 -21,20.5 -11.598,0 -21,-9.178 -21,-20.5 z"
       fill="#7f7f7f"
       fill-rule="evenodd"
       id="path33054" />
    <path
       d="m 154,116.5 c 0,-6.904 5.373,-12.5 12,-12.5 6.627,0 12,5.596 12,12.5 0,6.904 -5.373,12.5 -12,12.5 -6.627,0 -12,-5.596 -12,-12.5 z"
       fill="#d9d9d9"
       fill-rule="evenodd"
       id="path33056" />
  </g>
</svg>
