<?xml version="1.0" encoding="UTF-8" standalone="no"?>
<svg
   name="pixel-svg-outer"
   width="256"
   height="256"
   viewBox="0 0 256 256"
   version="1.1"
   id="svg57"
   xmlns="http://www.w3.org/2000/svg"
   xmlns:svg="http://www.w3.org/2000/svg">
  <defs
     id="defs61">
    <clipPath
       id="clip0">
      <rect
         x="550"
         y="509"
         width="184"
         height="182"
         id="rect114" />
    </clipPath>
  </defs>
  <g
     transform="matrix(1.3601982,0,0,1.3601982,-737.23027,-361.65398)"
     id="g592">
    <path
       d="m 546,360 c 0,-49.706 40.07,-90 89.5,-90 49.429,0 89.5,40.294 89.5,90 0,49.706 -40.071,90 -89.5,90 -49.43,0 -89.5,-40.294 -89.5,-90 z"
       fill="#c00000"
       fill-rule="evenodd"
       id="path586" />
    <path
       d="m 585.211,310.109 c 6.918,-6.918 18.134,-6.918 25.052,0 l 75.392,75.391 c 6.918,6.918 6.918,18.135 0,25.053 v 0 c -6.918,6.918 -18.135,6.918 -25.053,0 l -75.391,-75.391 c -6.919,-6.918 -6.919,-18.135 0,-25.053 z"
       fill="#ffffff"
       fill-rule="evenodd"
       id="path588" />
    <path
       d="m 685.655,310.109 c 6.918,6.918 6.918,18.135 0,25.053 l -75.392,75.391 c -6.918,6.918 -18.134,6.918 -25.052,0 v 0 c -6.919,-6.918 -6.919,-18.135 0,-25.053 l 75.391,-75.391 c 6.918,-6.918 18.135,-6.918 25.053,0 z"
       fill="#ffffff"
       fill-rule="evenodd"
       id="path590" />
  </g>
</svg>
