<?xml version="1.0" encoding="UTF-8" standalone="no"?>
<svg
   name="pixel-svg-outer"
   width="256"
   height="256"
   viewBox="0 0 256 256"
   version="1.1"
   id="svg57"
   xmlns="http://www.w3.org/2000/svg"
   xmlns:svg="http://www.w3.org/2000/svg">
  <defs
     id="defs61">
    <clipPath
       id="clip0">
      <rect
         x="550"
         y="509"
         width="184"
         height="182"
         id="rect114" />
    </clipPath>
  </defs>
  <g
     clip-path="url(#clip0)"
     transform="matrix(1.3457282,0,0,1.3457282,-736.11192,-681.78989)"
     id="g155">
    <path
       d="m 589,514.648 c 0,-3.119 2.529,-5.648 5.648,-5.648 h 7.704 c 3.119,0 5.648,2.529 5.648,5.648 v 20.704 c 0,3.119 -2.529,5.648 -5.648,5.648 h -7.704 C 591.529,541 589,538.471 589,535.352 Z"
       fill="#bfbfbf"
       fill-rule="evenodd"
       id="path119" />
    <path
       d="m 617,514.648 c 0,-3.119 2.529,-5.648 5.648,-5.648 h 7.704 c 3.119,0 5.648,2.529 5.648,5.648 v 20.704 c 0,3.119 -2.529,5.648 -5.648,5.648 h -7.704 C 619.529,541 617,538.471 617,535.352 Z"
       fill="#bfbfbf"
       fill-rule="evenodd"
       id="path121" />
    <path
       d="m 645,514.648 c 0,-3.119 2.529,-5.648 5.648,-5.648 h 7.704 c 3.119,0 5.648,2.529 5.648,5.648 v 20.704 c 0,3.119 -2.529,5.648 -5.648,5.648 h -7.704 C 647.529,541 645,538.471 645,535.352 Z"
       fill="#bfbfbf"
       fill-rule="evenodd"
       id="path123" />
    <path
       d="m 673,514.351 c 0,-2.955 2.396,-5.351 5.351,-5.351 h 7.298 c 2.955,0 5.351,2.396 5.351,5.351 v 21.298 c 0,2.955 -2.396,5.351 -5.351,5.351 h -7.298 C 675.396,541 673,538.604 673,535.649 Z"
       fill="#bfbfbf"
       fill-rule="evenodd"
       id="path125" />
    <path
       d="m 728.352,549 c 3.119,0 5.648,2.529 5.648,5.648 v 7.704 c 0,3.119 -2.529,5.648 -5.648,5.648 H 706.648 C 703.529,568 701,565.471 701,562.352 v -7.704 c 0,-3.119 2.529,-5.648 5.648,-5.648 z"
       fill="#bfbfbf"
       fill-rule="evenodd"
       id="path127" />
    <path
       d="m 728.352,577 c 3.119,0 5.648,2.529 5.648,5.648 v 7.704 c 0,3.119 -2.529,5.648 -5.648,5.648 H 706.648 C 703.529,596 701,593.471 701,590.352 v -7.704 c 0,-3.119 2.529,-5.648 5.648,-5.648 z"
       fill="#bfbfbf"
       fill-rule="evenodd"
       id="path129" />
    <path
       d="m 728.352,605 c 3.119,0 5.648,2.529 5.648,5.648 v 7.704 c 0,3.119 -2.529,5.648 -5.648,5.648 H 706.648 C 703.529,624 701,621.471 701,618.352 v -7.704 c 0,-3.119 2.529,-5.648 5.648,-5.648 z"
       fill="#bfbfbf"
       fill-rule="evenodd"
       id="path131" />
    <path
       d="m 728.352,633 c 3.119,0 5.648,2.529 5.648,5.648 v 7.704 c 0,3.119 -2.529,5.648 -5.648,5.648 H 706.648 C 703.529,652 701,649.471 701,646.352 v -7.704 c 0,-3.119 2.529,-5.648 5.648,-5.648 z"
       fill="#bfbfbf"
       fill-rule="evenodd"
       id="path133" />
    <path
       d="m 691,685.649 c 0,2.955 -2.396,5.351 -5.351,5.351 h -7.298 C 675.396,691 673,688.604 673,685.649 v -21.298 c 0,-2.955 2.396,-5.351 5.351,-5.351 h 7.298 c 2.955,0 5.351,2.396 5.351,5.351 z"
       fill="#bfbfbf"
       fill-rule="evenodd"
       id="path135" />
    <path
       d="m 664,685.352 c 0,3.119 -2.529,5.648 -5.648,5.648 h -7.704 C 647.529,691 645,688.471 645,685.352 v -20.704 c 0,-3.119 2.529,-5.648 5.648,-5.648 h 7.704 c 3.119,0 5.648,2.529 5.648,5.648 z"
       fill="#bfbfbf"
       fill-rule="evenodd"
       id="path137" />
    <path
       d="m 636,685.352 c 0,3.119 -2.529,5.648 -5.648,5.648 h -7.704 C 619.529,691 617,688.471 617,685.352 v -20.704 c 0,-3.119 2.529,-5.648 5.648,-5.648 h 7.704 c 3.119,0 5.648,2.529 5.648,5.648 z"
       fill="#bfbfbf"
       fill-rule="evenodd"
       id="path139" />
    <path
       d="m 608,685.352 c 0,3.119 -2.529,5.648 -5.648,5.648 h -7.704 C 591.529,691 589,688.471 589,685.352 v -20.704 c 0,-3.119 2.529,-5.648 5.648,-5.648 h 7.704 c 3.119,0 5.648,2.529 5.648,5.648 z"
       fill="#bfbfbf"
       fill-rule="evenodd"
       id="path141" />
    <path
       d="m 577.649,549 c 2.955,0 5.351,2.396 5.351,5.351 v 7.298 c 0,2.955 -2.396,5.351 -5.351,5.351 H 555.351 C 552.396,567 550,564.604 550,561.649 v -7.298 c 0,-2.955 2.396,-5.351 5.351,-5.351 z"
       fill="#bfbfbf"
       fill-rule="evenodd"
       id="path143" />
    <path
       d="m 577.352,576 c 3.119,0 5.648,2.529 5.648,5.648 v 7.704 c 0,3.119 -2.529,5.648 -5.648,5.648 H 555.648 C 552.529,595 550,592.471 550,589.352 v -7.704 c 0,-3.119 2.529,-5.648 5.648,-5.648 z"
       fill="#bfbfbf"
       fill-rule="evenodd"
       id="path145" />
    <path
       d="m 577.352,604 c 3.119,0 5.648,2.529 5.648,5.648 v 7.704 c 0,3.119 -2.529,5.648 -5.648,5.648 H 555.648 C 552.529,623 550,620.471 550,617.352 v -7.704 c 0,-3.119 2.529,-5.648 5.648,-5.648 z"
       fill="#bfbfbf"
       fill-rule="evenodd"
       id="path147" />
    <path
       d="m 577.352,632 c 3.119,0 5.648,2.529 5.648,5.648 v 7.704 c 0,3.119 -2.529,5.648 -5.648,5.648 H 555.648 C 552.529,651 550,648.471 550,645.352 v -7.704 c 0,-3.119 2.529,-5.648 5.648,-5.648 z"
       fill="#bfbfbf"
       fill-rule="evenodd"
       id="path149" />
    <path
       d="m 576,556 c 0,-12.15 9.85,-22 22,-22 h 88 c 12.15,0 22,9.85 22,22 v 89 c 0,12.15 -9.85,22 -22,22 h -88 c -12.15,0 -22,-9.85 -22,-22 z"
       fill="#262626"
       fill-rule="evenodd"
       id="path151" />
    <path
       d="m 673,557.5 c 0,-5.247 4.029,-9.5 9,-9.5 4.971,0 9,4.253 9,9.5 0,5.247 -4.029,9.5 -9,9.5 -4.971,0 -9,-4.253 -9,-9.5 z"
       fill="#404040"
       fill-rule="evenodd"
       id="path153" />
  </g>
</svg>
