<?xml version="1.0" encoding="UTF-8" standalone="no"?>
<svg
   name="pixel-svg-outer"
   width="256"
   height="256"
   viewBox="0 0 256 256"
   version="1.1"
   id="svg57"
   xmlns="http://www.w3.org/2000/svg"
   xmlns:svg="http://www.w3.org/2000/svg">
  <defs
     id="defs61">
    <clipPath
       id="clip0">
      <rect
         x="550"
         y="509"
         width="184"
         height="182"
         id="rect114" />
    </clipPath>
  </defs>
  <g
     transform="matrix(1.3274699,0,0,1.3274699,-379.88364,-351.74199)"
     id="g336">
    <path
       d="m 380.775,326.622 c -18.465,0 -33.434,14.944 -33.434,33.378 0,18.434 14.969,33.378 33.434,33.378 18.465,0 33.434,-14.944 33.434,-33.378 0,-18.434 -14.969,-33.378 -33.434,-33.378 z M 361.337,269 h 39.733 v 27.714 l 5.733,1.777 7.048,3.601 19.905,-19.871 28.096,28.048 -20.811,20.776 0.008,0.014 3.647,10.357 H 475 v 39.667 h -31.088 l -1.524,4.901 -1.719,3.352 21.182,21.147 -28.095,28.048 -20.434,-20.399 -3.557,2.041 -7.418,2.603 V 451 h -39.734 v -27.053 l -7.866,-2.438 -5.163,-2.638 -19.548,19.514 -28.095,-28.048 19.608,-19.575 -1.048,-1.821 -2.937,-8.343 H 290 v -39.666 h 26.733 l 0.18,-0.783 4.49,-10.26 -19.942,-19.908 28.096,-28.049 19.669,19.637 5.521,-3.078 6.59,-2.042 z"
       fill="#69131f"
       fill-rule="evenodd"
       id="path334" />
  </g>
</svg>
