<?xml version="1.0" encoding="UTF-8" standalone="no"?>
<svg
   name="pixel-svg-outer"
   width="256"
   height="256"
   viewBox="0 0 256 256"
   version="1.1"
   id="svg57"
   xmlns="http://www.w3.org/2000/svg"
   xmlns:svg="http://www.w3.org/2000/svg">
  <defs
     id="defs61">
    <clipPath
       id="clip0">
      <rect
         x="550"
         y="509"
         width="184"
         height="182"
         id="rect114" />
    </clipPath>
  </defs>
  <g
     transform="matrix(1.3702861,0,0,1.3702861,-33.814469,-38.86359)"
     id="g846">
    <path
       d="m 31.083,111.847 79.227,-79.227 87.912,87.913 -79.226,79.226 z"
       fill="#ffffff"
       fill-rule="evenodd"
       id="path842" />
    <path
       d="m 117.497,31.2314 c 3.78,0 7.56,1.442 10.444,4.326 l 75.905,75.9046 c 5.768,5.768 5.768,15.12 0,20.888 l -75.905,75.905 c -5.768,5.768 -15.12,5.768 -20.888,0 L 31.1485,132.35 c -5.768,-5.768 -5.768,-15.12 0,-20.888 l 53.0341,-53.0338 18.0194,17.9809 -0.093,0.172 c -0.76,1.797 -1.181,3.7727 -1.181,5.8465 0,5.1845 2.627,9.7555 6.623,12.4547 l 2.15,1.1671 v 50.5466 l -2.058,1.117 c -3.996,2.7 -6.622,7.27 -6.622,12.455 0,8.295 6.724,15.02 15.02,15.02 8.295,0 15.02,-6.725 15.02,-15.02 0,-5.184 -2.627,-9.755 -6.623,-12.455 l -2.462,-1.336 V 96.1685 l 0.018,-0.0097 18.644,18.6032 -0.827,2.665 c -0.2,0.978 -0.305,1.99 -0.305,3.027 0,8.295 6.724,15.02 15.02,15.02 8.295,0 15.019,-6.725 15.019,-15.02 0,-8.295 -6.724,-15.02 -15.019,-15.02 -1.037,0 -2.05,0.105 -3.028,0.305 l -1.925,0.598 -19.387,-19.3457 0.477,-1.5367 c 0.2,-0.9778 0.305,-1.9901 0.305,-3.0271 0,-8.2952 -6.724,-15.0199 -15.02,-15.0199 -1.037,1e-4 -2.049,0.1052 -3.027,0.3052 L 111.354,68.1994 92.8627,49.748 107.053,35.5574 c 2.884,-2.884 6.664,-4.326 10.444,-4.326 z"
       fill="#f05133"
       fill-rule="evenodd"
       id="path844" />
  </g>
</svg>
