<?xml version="1.0" encoding="UTF-8" standalone="no"?>
<svg
   name="pixel-svg-outer"
   width="256"
   height="256"
   viewBox="0 0 256 256"
   version="1.1"
   id="svg57"
   xmlns="http://www.w3.org/2000/svg"
   xmlns:svg="http://www.w3.org/2000/svg">
  <defs
     id="defs61">
    <clipPath
       id="clip0">
      <rect
         x="550"
         y="509"
         width="184"
         height="182"
         id="rect114" />
    </clipPath>
  </defs>
  <g
     transform="matrix(1.3479043,0,0,1.3479043,-729.73073,-37.238693)"
     id="g408">
    <path
       d="M 549,64.0006 C 549,47.984 561.984,35 578.001,35 H 693.999 C 710.016,35 723,47.984 723,64.0006 V 179.999 C 723,196.016 710.016,209 693.999,209 H 578.001 C 561.984,209 549,196.016 549,179.999 Z"
       fill="#7030a0"
       fill-rule="evenodd"
       id="path394" />
    <rect
       x="573"
       y="58"
       width="51"
       height="24"
       fill="#ffffff"
       id="rect396" />
    <rect
       x="573"
       y="82"
       width="24"
       height="99"
       fill="#ffffff"
       id="rect398" />
    <rect
       x="573"
       y="163"
       width="118"
       height="23"
       fill="#ffffff"
       id="rect400" />
    <rect
       x="679"
       y="135"
       width="24"
       height="51"
       fill="#ffffff"
       id="rect402" />
    <path
       d="m 698,58 v 60 L 639,58 Z"
       fill="#ffffff"
       fill-rule="evenodd"
       id="path404" />
    <path
       d="m 684.38,90.8044 -54.342,54.3426 -16.95,-16.949 54.343,-54.3433 z"
       fill="#ffffff"
       fill-rule="evenodd"
       id="path406" />
  </g>
</svg>
