<?xml version="1.0" encoding="UTF-8" standalone="no"?>
<svg
   name="pixel-svg-outer"
   width="256"
   height="256"
   viewBox="0 0 256 256"
   version="1.1"
   id="svg57"
   xmlns="http://www.w3.org/2000/svg"
   xmlns:svg="http://www.w3.org/2000/svg">
  <defs
     id="defs61">
    <clipPath
       id="clip0">
      <rect
         x="550"
         y="509"
         width="184"
         height="182"
         id="rect114" />
    </clipPath>
  </defs>
  <g
     transform="matrix(1.4485002,0,0,1.4485002,-1158.3535,-741.50103)"
     id="g24050">
    <path
       d="M 806,545.167 C 806,530.163 818.163,518 833.167,518 H 941.833 C 956.837,518 969,530.163 969,545.167 V 653.833 C 969,668.837 956.837,681 941.833,681 H 833.167 C 818.163,681 806,668.837 806,653.833 Z"
       fill="#ffffff"
       fill-rule="evenodd"
       id="path24046" />
    <path
       d="M 833.167,518 H 941.833 C 956.837,518 969,530.163 969,545.167 V 653.833 C 969,668.837 956.837,681 941.833,681 H 833.167 C 818.163,681 806,668.837 806,653.833 v -46.056 h 44.865 l 0.405,-0.082 1.391,0.206 c 3.213,-0.174 6.166,-2.229 7.326,-5.447 l 5.099,-14.133 17.467,48.42 c 1.547,4.291 6.28,6.514 10.57,4.966 v 0 c 1.073,-0.387 2.016,-0.973 2.804,-1.701 l 0.432,-0.591 0.193,-0.141 0.438,-0.721 0.806,-1.103 0.097,-0.386 0.36,-0.593 17.373,-48.16 4.484,12.43 0.402,1.992 c 1.254,2.964 4.189,5.044 7.61,5.044 h 22.67 c 4.561,0 8.259,-3.698 8.259,-8.259 v 0 c 0,-4.561 -3.697,-8.258 -8.258,-8.258 h -16.544 l -10.824,-30.006 c -1.161,-3.218 -4.114,-5.273 -7.327,-5.446 l -0.885,0.131 -0.1,-0.015 -0.552,0.111 -1.707,0.253 -0.855,0.519 -1.32,0.699 -0.271,0.266 -0.358,0.217 -0.348,0.477 -0.734,0.72 -0.589,1.089 -0.198,0.27 -0.044,0.177 -0.351,0.648 -17.432,48.323 -17.418,-48.285 c -0.387,-1.072 -0.973,-2.016 -1.701,-2.803 l -0.618,-0.452 -0.007,-0.009 -0.035,-0.022 -1.896,-1.386 -0.665,-0.168 -0.208,-0.126 v 0 l -0.709,-0.105 -1.488,-0.375 -0.523,0.077 -0.524,-0.077 c -3.213,0.173 -6.166,2.228 -7.327,5.446 L 846.467,591.26 H 806 V 545.167 C 806,530.163 818.163,518 833.167,518 Z"
       fill="#ff6600"
       fill-rule="evenodd"
       id="path24048" />
  </g>
</svg>
