<?xml version="1.0" encoding="UTF-8" standalone="no"?>
<svg
   name="pixel-svg-outer"
   width="256"
   height="256"
   viewBox="0 0 256 256"
   version="1.1"
   id="svg57"
   xmlns="http://www.w3.org/2000/svg"
   xmlns:svg="http://www.w3.org/2000/svg">
  <defs
     id="defs61">
    <clipPath
       id="clip0">
      <rect
         x="550"
         y="509"
         width="184"
         height="182"
         id="rect114" />
    </clipPath>
  </defs>
  <g
     transform="matrix(1.3164119,0,0,1.3164119,-39.467254,-28.642398)"
     id="g440">
    <path
       d="m 145.923,26 c 16.75,0 30.328,13.5667 30.328,30.3019 0,8.3676 -3.394,15.9431 -8.883,21.4267 l -5.322,3.585 H 215 v 36.0004 l -2.324,-1.566 c -3.628,-1.533 -7.618,-2.381 -11.805,-2.381 -16.751,0 -30.329,13.567 -30.329,30.302 0,16.735 13.578,30.302 30.329,30.302 4.187,0 8.177,-0.848 11.805,-2.381 L 215,170.024 V 210 H 86.1991 v -41.733 l -3.9131,3.226 c -4.8405,3.267 -10.6759,5.175 -16.9571,5.175 C 48.5788,176.668 35,163.101 35,146.366 c 0,-16.735 13.5788,-30.302 30.3289,-30.302 6.2812,0 12.1166,1.908 16.9571,5.175 l 3.9131,3.226 V 81.3136 h 43.5999 l -5.322,-3.585 C 118.988,72.245 115.594,64.6695 115.594,56.3019 115.594,39.5667 129.172,26 145.923,26 Z"
       fill="#00b050"
       fill-rule="evenodd"
       id="path438" />
  </g>
</svg>
