<?xml version="1.0" encoding="UTF-8" standalone="no"?>
<svg
   name="pixel-svg-outer"
   width="256"
   height="256"
   viewBox="0 0 256 256"
   version="1.1"
   id="svg57"
   xmlns="http://www.w3.org/2000/svg"
   xmlns:svg="http://www.w3.org/2000/svg">
  <defs
     id="defs61">
    <clipPath
       id="clip0">
      <rect
         x="550"
         y="509"
         width="184"
         height="182"
         id="rect114" />
    </clipPath>
  </defs>
  <g
     transform="matrix(1.7081793,0,0,1.7081793,-957.08521,-923.22868)"
     id="g796">
    <path
       d="m 587,560.5 c 0,-3.59 2.91,-6.5 6.5,-6.5 3.59,0 6.5,2.91 6.5,6.5 0,3.59 -2.91,6.5 -6.5,6.5 -3.59,0 -6.5,-2.91 -6.5,-6.5 z"
       fill="#00b050"
       fill-rule="evenodd"
       id="path766" />
    <path
       d="m 605,560.5 c 0,-3.59 2.91,-6.5 6.5,-6.5 3.59,0 6.5,2.91 6.5,6.5 0,3.59 -2.91,6.5 -6.5,6.5 -3.59,0 -6.5,-2.91 -6.5,-6.5 z"
       fill="#ff0000"
       fill-rule="evenodd"
       id="path768" />
    <path
       d="m 624,560.5 c 0,-3.59 2.91,-6.5 6.5,-6.5 3.59,0 6.5,2.91 6.5,6.5 0,3.59 -2.91,6.5 -6.5,6.5 -3.59,0 -6.5,-2.91 -6.5,-6.5 z"
       fill="#ff0000"
       fill-rule="evenodd"
       id="path770" />
    <path
       d="m 587,596.5 c 0,-3.59 2.91,-6.5 6.5,-6.5 3.59,0 6.5,2.91 6.5,6.5 0,3.59 -2.91,6.5 -6.5,6.5 -3.59,0 -6.5,-2.91 -6.5,-6.5 z"
       fill="#ff0000"
       fill-rule="evenodd"
       id="path772" />
    <path
       d="m 605,596.5 c 0,-3.59 2.91,-6.5 6.5,-6.5 3.59,0 6.5,2.91 6.5,6.5 0,3.59 -2.91,6.5 -6.5,6.5 -3.59,0 -6.5,-2.91 -6.5,-6.5 z"
       fill="#ff0000"
       fill-rule="evenodd"
       id="path774" />
    <path
       d="m 623,596.5 c 0,-3.59 2.91,-6.5 6.5,-6.5 3.59,0 6.5,2.91 6.5,6.5 0,3.59 -2.91,6.5 -6.5,6.5 -3.59,0 -6.5,-2.91 -6.5,-6.5 z"
       fill="#00b050"
       fill-rule="evenodd"
       id="path776" />
    <path
       d="m 586,636.5 c 0,-3.59 2.91,-6.5 6.5,-6.5 3.59,0 6.5,2.91 6.5,6.5 0,3.59 -2.91,6.5 -6.5,6.5 -3.59,0 -6.5,-2.91 -6.5,-6.5 z"
       fill="#ff0000"
       fill-rule="evenodd"
       id="path778" />
    <path
       d="m 605,636.5 c 0,-3.59 2.91,-6.5 6.5,-6.5 3.59,0 6.5,2.91 6.5,6.5 0,3.59 -2.91,6.5 -6.5,6.5 -3.59,0 -6.5,-2.91 -6.5,-6.5 z"
       fill="#00b050"
       fill-rule="evenodd"
       id="path780" />
    <path
       d="m 623,636.5 c 0,-3.59 2.91,-6.5 6.5,-6.5 3.59,0 6.5,2.91 6.5,6.5 0,3.59 -2.91,6.5 -6.5,6.5 -3.59,0 -6.5,-2.91 -6.5,-6.5 z"
       fill="#ff0000"
       fill-rule="evenodd"
       id="path782" />
    <path
       d="m 629.5,674.5 h 11 v 12 h -11 z"
       stroke="#bfbfbf"
       stroke-miterlimit="8"
       fill="#ffc000"
       fill-rule="evenodd"
       id="path784" />
    <path
       d="m 648.5,674.5 h 55 v 12 h -55 z"
       stroke="#bfbfbf"
       stroke-miterlimit="8"
       fill="#ffc000"
       fill-rule="evenodd"
       id="path786" />
    <path
       d="m 566.5,674.5 h 55 v 12 h -55 z"
       stroke="#bfbfbf"
       stroke-miterlimit="8"
       fill="#ffc000"
       fill-rule="evenodd"
       id="path788" />
    <path
       d="m 631.688,633 c -2.106,0 -3.813,1.716 -3.813,3.833 0,2.117 1.707,3.834 3.813,3.834 2.105,0 3.812,-1.717 3.812,-3.834 0,-2.117 -1.707,-3.833 -3.812,-3.833 z m -19.063,0 c -2.105,0 -3.812,1.716 -3.812,3.833 0,2.117 1.707,3.834 3.812,3.834 2.106,0 3.813,-1.717 3.813,-3.834 0,-2.117 -1.707,-3.833 -3.813,-3.833 z m -19.062,0 c -2.106,0 -3.813,1.716 -3.813,3.833 0,2.117 1.707,3.834 3.813,3.834 2.105,0 3.812,-1.717 3.812,-3.834 0,-2.117 -1.707,-3.833 -3.812,-3.833 z m -12.238,-11.5 h 108.351 c 3.769,0 6.824,3.072 6.824,6.862 v 16.943 c 0,3.79 -3.055,6.862 -6.824,6.862 H 641.219 V 667.5 h -11.438 v -15.333 h -48.456 c -3.77,0 -6.825,-3.072 -6.825,-6.862 v -16.943 c 0,-3.79 3.055,-6.862 6.825,-6.862 z"
       stroke="#bfbfbf"
       stroke-miterlimit="8"
       fill="#404040"
       fill-rule="evenodd"
       id="path790" />
    <path
       d="M 689.676,583.5 H 581.325 c -3.77,0 -6.825,3.005 -6.825,6.713 v 16.574 c 0,3.708 3.055,6.713 6.825,6.713 h 108.351 c 3.769,0 6.824,-3.005 6.824,-6.713 v -16.574 c 0,-3.708 -3.055,-6.713 -6.824,-6.713 z m -96.113,18.75 c -2.106,0 -3.813,-1.679 -3.813,-3.75 0,-2.071 1.707,-3.75 3.813,-3.75 2.105,0 3.812,1.679 3.812,3.75 0,2.071 -1.707,3.75 -3.812,3.75 z m 19.062,0 c -2.106,0 -3.812,-1.679 -3.812,-3.75 0,-2.071 1.706,-3.75 3.812,-3.75 2.106,0 3.813,1.679 3.813,3.75 0,2.071 -1.707,3.75 -3.813,3.75 z m 19.063,0 c -2.106,0 -3.813,-1.679 -3.813,-3.75 0,-2.071 1.707,-3.75 3.813,-3.75 2.105,0 3.812,1.679 3.812,3.75 0,2.071 -1.707,3.75 -3.812,3.75 z"
       stroke="#bfbfbf"
       stroke-miterlimit="8"
       fill="#404040"
       fill-rule="evenodd"
       id="path792" />
    <path
       d="M 689.676,545.5 H 581.325 c -3.77,0 -6.825,3.005 -6.825,6.713 v 16.575 c 0,3.707 3.055,6.712 6.825,6.712 h 108.351 c 3.769,0 6.824,-3.005 6.824,-6.712 v -16.575 c 0,-3.708 -3.055,-6.713 -6.824,-6.713 z m -96.113,18.75 c -2.106,0 -3.813,-1.679 -3.813,-3.75 0,-2.071 1.707,-3.75 3.813,-3.75 2.105,0 3.812,1.679 3.812,3.75 0,2.071 -1.707,3.75 -3.812,3.75 z m 19.062,0 c -2.106,0 -3.812,-1.679 -3.812,-3.75 0,-2.071 1.706,-3.75 3.812,-3.75 2.106,0 3.813,1.679 3.813,3.75 0,2.071 -1.707,3.75 -3.813,3.75 z m 19.063,0 c -2.106,0 -3.813,-1.679 -3.813,-3.75 0,-2.071 1.707,-3.75 3.813,-3.75 2.105,0 3.812,1.679 3.812,3.75 0,2.071 -1.707,3.75 -3.812,3.75 z"
       stroke="#bfbfbf"
       stroke-miterlimit="8"
       fill="#404040"
       fill-rule="evenodd"
       id="path794" />
  </g>
</svg>
