<?xml version="1.0" encoding="UTF-8" standalone="no"?>
<svg
   name="pixel-svg-outer"
   width="256"
   height="256"
   viewBox="0 0 256 256"
   version="1.1"
   id="svg57"
   xmlns="http://www.w3.org/2000/svg"
   xmlns:svg="http://www.w3.org/2000/svg">
  <defs
     id="defs61">
    <clipPath
       id="clip0">
      <rect
         x="550"
         y="509"
         width="184"
         height="182"
         id="rect114" />
    </clipPath>
  </defs>
  <g
     transform="matrix(1.4436535,0,0,1.4436535,-1541.0077,-40.559279)"
     id="g34552">
    <path
       d="m 1071,117 c 0,-46.9442 37.83,-85 84.5,-85 46.67,0 84.5,38.0558 84.5,85 0,46.944 -37.83,85 -84.5,85 -46.67,0 -84.5,-38.056 -84.5,-85 z"
       fill="#ff0000"
       fill-rule="evenodd"
       id="path34546" />
    <path
       d="m 1097,116.5 c 0,-32.3087 26.19,-58.5 58.5,-58.5 32.31,0 58.5,26.1913 58.5,58.5 0,32.309 -26.19,58.5 -58.5,58.5 -32.31,0 -58.5,-26.191 -58.5,-58.5 z"
       fill="#ffffff"
       fill-rule="evenodd"
       id="path34548" />
    <path
       d="m 1123,116.5 c 0,-17.9493 14.55,-32.5 32.5,-32.5 17.95,0 32.5,14.5507 32.5,32.5 0,17.949 -14.55,32.5 -32.5,32.5 -17.95,0 -32.5,-14.551 -32.5,-32.5 z"
       fill="#ff0000"
       fill-rule="evenodd"
       id="path34550" />
  </g>
</svg>
