<?xml version="1.0" encoding="UTF-8" standalone="no"?>
<svg
   name="pixel-svg-outer"
   width="256"
   height="256"
   viewBox="0 0 256 256"
   version="1.1"
   id="svg57"
   xmlns="http://www.w3.org/2000/svg"
   xmlns:svg="http://www.w3.org/2000/svg">
  <defs
     id="defs61">
    <clipPath
       id="clip0">
      <rect
         x="550"
         y="509"
         width="184"
         height="182"
         id="rect114" />
    </clipPath>
  </defs>
  <g
     transform="matrix(1.2305536,0,0,1.2305536,-980.30762,-13.165483)"
     id="g12124">
    <path
       d="m 833,65.7499 c 0,9.2508 29.997,16.75 67,16.75 37.003,0 67,-7.4992 67,-16.75 V 191.25 c 0,9.251 -29.997,16.75 -67,16.75 -37.003,0 -67,-7.499 -67,-16.75 z"
       fill="#a6a6a6"
       fill-rule="evenodd"
       id="path12102" />
    <path
       d="M 833,65.7499 C 833,56.4992 862.997,49 900,49 c 37.003,0 67,7.4992 67,16.7499 0,9.2508 -29.997,16.75 -67,16.75 -37.003,0 -67,-7.4992 -67,-16.75 z"
       fill="#cacaca"
       fill-rule="evenodd"
       id="path12104" />
    <path
       d="m 967,65.7499 c 0,9.2508 -29.997,16.75 -67,16.75 -37.003,0 -67,-7.4992 -67,-16.75 C 833,56.4992 862.997,49 900,49 c 37.003,0 67,7.4992 67,16.7499 V 191.25 c 0,9.251 -29.997,16.75 -67,16.75 -37.003,0 -67,-7.499 -67,-16.75 V 65.7499"
       stroke="#595959"
       stroke-width="12"
       stroke-miterlimit="8"
       fill="none"
       fill-rule="evenodd"
       id="path12106" />
    <path
       d="m 825,49.25 c 0,6.7655 33.579,12.25 75,12.25 41.421,0 75,-5.4845 75,-12.25 v 24.5 C 975,80.5155 941.421,86 900,86 858.579,86 825,80.5155 825,73.75 Z"
       fill="#a6a6a6"
       fill-rule="evenodd"
       id="path12108" />
    <path
       d="M 825,49.25 C 825,42.4845 858.579,37 900,37 c 41.421,0 75,5.4845 75,12.25 0,6.7655 -33.579,12.25 -75,12.25 -41.421,0 -75,-5.4845 -75,-12.25 z"
       fill="#cacaca"
       fill-rule="evenodd"
       id="path12110" />
    <path
       d="m 975,49.25 c 0,6.7655 -33.579,12.25 -75,12.25 -41.421,0 -75,-5.4845 -75,-12.25 0,-6.7655 33.579,-12.25 75,-12.25 41.421,0 75,5.4845 75,12.25 v 24.5 C 975,80.5155 941.421,86 900,86 858.579,86 825,80.5155 825,73.75 v -24.5"
       stroke="#595959"
       stroke-width="12"
       stroke-miterlimit="8"
       fill="none"
       fill-rule="evenodd"
       id="path12112" />
    <path
       d="m 876,113 c 0,-4.418 3.582,-8 8,-8 v 0 c 4.418,0 8,3.582 8,8 v 71 c 0,4.418 -3.582,8 -8,8 v 0 c -4.418,0 -8,-3.582 -8,-8 z"
       fill="#7f7f7f"
       fill-rule="evenodd"
       id="path12114" />
    <path
       d="m 911,113.5 c 0,-4.694 3.806,-8.5 8.5,-8.5 v 0 c 4.695,0 8.5,3.806 8.5,8.5 v 70 c 0,4.695 -3.806,8.5 -8.5,8.5 v 0 c -4.694,0 -8.5,-3.806 -8.5,-8.5 z"
       fill="#7f7f7f"
       fill-rule="evenodd"
       id="path12116" />
    <path
       d="m 942,103.5 c 0,-3.038 2.462,-5.5 5.5,-5.5 v 0 c 3.038,0 5.5,2.462 5.5,5.5 v 76 c 0,3.038 -2.462,5.5 -5.5,5.5 v 0 c -3.038,0 -5.5,-2.462 -5.5,-5.5 z"
       fill="#7f7f7f"
       fill-rule="evenodd"
       id="path12118" />
    <path
       d="m 847,104.5 c 0,-3.038 2.462,-5.5 5.5,-5.5 v 0 c 3.038,0 5.5,2.462 5.5,5.5 v 77 c 0,3.038 -2.462,5.5 -5.5,5.5 v 0 c -3.038,0 -5.5,-2.462 -5.5,-5.5 z"
       fill="#7f7f7f"
       fill-rule="evenodd"
       id="path12120" />
    <path
       d="M 869,48.5 C 869,32.7599 881.76,20 897.5,20 913.24,20 926,32.7599 926,48.5 h -14.25 c 0,-7.8701 -6.38,-14.25 -14.25,-14.25 -7.87,0 -14.25,6.3799 -14.25,14.25 z"
       stroke="#595959"
       stroke-width="8"
       stroke-miterlimit="8"
       fill="#a6a6a6"
       fill-rule="evenodd"
       id="path12122" />
  </g>
</svg>
