<?xml version="1.0" encoding="UTF-8" standalone="no"?>
<svg
   name="pixel-svg-outer"
   width="256"
   height="256"
   viewBox="0 0 256 256"
   version="1.1"
   id="svg57"
   xmlns="http://www.w3.org/2000/svg"
   xmlns:svg="http://www.w3.org/2000/svg">
  <defs
     id="defs61">
    <clipPath
       id="clip0">
      <rect
         x="550"
         y="509"
         width="184"
         height="182"
         id="rect114" />
    </clipPath>
  </defs>
  <g
     transform="matrix(1.3060289,0,0,1.3060289,-1380.5476,-666.22218)"
     id="g632">
    <path
       d="M 1070,543.001 C 1070,526.984 1082.98,514 1099,514 h 116 c 16.02,0 29,12.984 29,29.001 v 116.998 c 0,16.017 -12.98,29.001 -29,29.001 h -116 c -16.02,0 -29,-12.984 -29,-29.001 z"
       fill="#595959"
       fill-rule="evenodd"
       id="path614" />
    <path
       d="M 1080,549.667 C 1080,535.492 1091.49,524 1105.67,524 h 102.66 c 14.18,0 25.67,11.492 25.67,25.667 V 653.333 C 1234,667.508 1222.51,679 1208.33,679 H 1105.67 C 1091.49,679 1080,667.508 1080,653.333 Z"
       fill="#333f50"
       fill-rule="evenodd"
       id="path616" />
    <path
       d="m 1063,561.5 c 0,-6.904 5.6,-12.5 12.5,-12.5 v 0 c 6.9,0 12.5,5.596 12.5,12.5 v 25 c 0,6.904 -5.6,12.5 -12.5,12.5 v 0 c -6.9,0 -12.5,-5.596 -12.5,-12.5 z"
       fill="#222a35"
       fill-rule="evenodd"
       id="path618" />
    <path
       d="m 1063,619.5 c 0,-6.904 5.6,-12.5 12.5,-12.5 v 0 c 6.9,0 12.5,5.596 12.5,12.5 v 25 c 0,6.904 -5.6,12.5 -12.5,12.5 v 0 c -6.9,0 -12.5,-5.596 -12.5,-12.5 z"
       fill="#222a35"
       fill-rule="evenodd"
       id="path620" />
    <path
       d="m 1109,601.5 c 0,-27.338 22.16,-49.5 49.5,-49.5 27.34,0 49.5,22.162 49.5,49.5 0,27.338 -22.16,49.5 -49.5,49.5 -27.34,0 -49.5,-22.162 -49.5,-49.5 z"
       fill-rule="evenodd"
       id="path622" />
    <path
       d="m 1158.5,580.519 c 11.59,0 20.98,9.394 20.98,20.981 0,11.587 -9.39,20.981 -20.98,20.981 -11.59,0 -20.98,-9.394 -20.98,-20.981 0,-11.587 9.39,-20.981 20.98,-20.981 z m -2.05,-15.978 -1.74,0.087 c -3.74,0.38 -7.31,1.315 -10.64,2.722 l -2.22,1.206 4.05,7.018 -3.57,1.941 -0.03,0.026 -4.06,-7.025 -0.46,0.251 c -3.95,2.664 -7.35,6.067 -10.01,10.011 l -0.25,0.462 7.02,4.056 -0.03,0.032 -1.94,3.575 -7.01,-4.052 -1.21,2.222 c -1.41,3.326 -2.34,6.9 -2.72,10.638 l -0.09,1.736 h 8.24 l -0.21,2.053 0.21,2.053 h -8.24 l 0.09,1.736 c 0.38,3.738 1.31,7.312 2.72,10.638 l 1.21,2.222 7.01,-4.052 1.94,3.575 0.03,0.032 -7.02,4.056 0.25,0.462 c 2.66,3.944 6.06,7.347 10.01,10.011 l 0.46,0.251 4.06,-7.025 0.03,0.026 3.57,1.941 -4.05,7.018 2.22,1.206 c 3.33,1.407 6.9,2.342 10.64,2.722 l 1.74,0.087 v -8.241 l 2.05,0.207 2.05,-0.207 v 8.241 l 1.74,-0.087 c 3.74,-0.38 7.31,-1.315 10.64,-2.722 l 2.22,-1.206 -4.05,-7.018 3.57,-1.941 0.03,-0.026 4.06,7.025 0.46,-0.251 c 3.95,-2.664 7.35,-6.067 10.01,-10.011 l 0.25,-0.462 -7.02,-4.056 0.03,-0.032 1.94,-3.575 7.01,4.052 1.21,-2.222 c 1.41,-3.326 2.34,-6.9 2.72,-10.638 l 0.09,-1.736 h -8.24 l 0.21,-2.053 -0.21,-2.053 h 8.24 l -0.09,-1.736 c -0.38,-3.738 -1.31,-7.312 -2.72,-10.638 l -1.21,-2.222 -7.01,4.052 -1.94,-3.575 -0.03,-0.032 7.02,-4.056 -0.25,-0.462 c -2.66,-3.944 -6.06,-7.347 -10.01,-10.011 l -0.46,-0.251 -4.06,7.025 -0.03,-0.026 -3.57,-1.941 4.05,-7.018 -2.22,-1.206 c -3.33,-1.407 -6.9,-2.342 -10.64,-2.722 l -1.74,-0.087 v 8.241 l -2.05,-0.207 -2.05,0.207 z M 1158.5,558 c 24.02,0 43.5,19.476 43.5,43.5 0,24.024 -19.48,43.5 -43.5,43.5 -24.02,0 -43.5,-19.476 -43.5,-43.5 0,-24.024 19.48,-43.5 43.5,-43.5 z"
       fill="#d9d9d9"
       fill-rule="evenodd"
       id="path624" />
    <path
       d="m 1117,683 c 4.97,0 9,4.029 9,9 v 0 c 0,4.971 -4.03,9 -9,9 h -12 c -4.97,0 -9,-4.029 -9,-9 v 0 c 0,-4.971 4.03,-9 9,-9 z"
       fill="#595959"
       fill-rule="evenodd"
       id="path626" />
    <path
       d="m 1213,683 c 4.97,0 9,4.029 9,9 v 0 c 0,4.971 -4.03,9 -9,9 h -12 c -4.97,0 -9,-4.029 -9,-9 v 0 c 0,-4.971 4.03,-9 9,-9 z"
       fill="#595959"
       fill-rule="evenodd"
       id="path628" />
    <path
       d="m 1153,589.5 c 0,-3.038 2.46,-5.5 5.5,-5.5 3.04,0 5.5,2.462 5.5,5.5 0,3.038 -2.46,5.5 -5.5,5.5 -3.04,0 -5.5,-2.462 -5.5,-5.5 z"
       fill-rule="evenodd"
       id="path630" />
  </g>
</svg>
