<?xml version="1.0" encoding="UTF-8" standalone="no"?>
<svg
   name="pixel-svg-outer"
   width="256"
   height="256"
   viewBox="0 0 256 256"
   version="1.1"
   id="svg57"
   xmlns="http://www.w3.org/2000/svg"
   xmlns:svg="http://www.w3.org/2000/svg">
  <defs
     id="defs61">
    <clipPath
       id="clip0">
      <rect
         x="550"
         y="509"
         width="184"
         height="182"
         id="rect114" />
    </clipPath>
  </defs>
  <g
     transform="matrix(1.3332088,0,0,1.3332088,-725.23122,-678.23811)"
     id="g16568">
    <path
       d="m 557.5,604.5 c 0,-45.287 36.713,-82 82,-82 45.287,0 82,36.713 82,82 0,45.287 -36.713,82 -82,82 -45.287,0 -82,-36.713 -82,-82 z"
       stroke="#2f5597"
       stroke-width="18.6667"
       stroke-miterlimit="8"
       fill="none"
       fill-rule="evenodd"
       id="path16558" />
    <path
       d="m 605,604 c 0,-45.287 15.446,-82 34.5,-82 19.054,0 34.5,36.713 34.5,82 0,45.287 -15.446,82 -34.5,82 -19.054,0 -34.5,-36.713 -34.5,-82 z"
       stroke="#2f5597"
       stroke-width="16"
       stroke-miterlimit="8"
       fill="none"
       fill-rule="evenodd"
       id="path16560" />
    <path
       d="M 557,604 H 720.656"
       stroke="#2f5597"
       stroke-width="16"
       stroke-miterlimit="8"
       fill="none"
       fill-rule="evenodd"
       id="path16562" />
    <path
       d="M 6.68098,11.8262 C 22.7251,1.39336 62.5133,-2.95683 95.5505,2.10975 107.797,3.9879 117.923,7.00782 124.561,10.7615"
       stroke="#2f5597"
       stroke-width="16"
       stroke-miterlimit="8"
       fill="none"
       fill-rule="evenodd"
       transform="matrix(1,0,0,-1,573,562)"
       id="path16564" />
    <path
       d="m 579.681,659.826 c 16.044,-10.433 55.832,-14.783 88.869,-9.716 12.247,1.878 22.373,4.898 29.011,8.652"
       stroke="#2f5597"
       stroke-width="16"
       stroke-miterlimit="8"
       fill="none"
       fill-rule="evenodd"
       id="path16566" />
  </g>
</svg>
